<svg xmlns="http://www.w3.org/2000/svg"><defs><font horiz-adv-x="1128"><font-face units-per-em="2048" ascent="1638" descent="-410"/><glyph horiz-adv-x="2048"/><glyph horiz-adv-x="2048"/><glyph horiz-adv-x="1044"/><glyph horiz-adv-x="532"/><glyph horiz-adv-x="532"/><glyph horiz-adv-x="532"/><glyph unicode="!" horiz-adv-x="551" d="M336 414h-121l-51 1048h223zm-189-303q0 38 10 64.5t27 43 40 24 50 7.5q26 0 49.5-7.5t40.5-24 27-43 10-64.5q0-37-10-63.5t-27-43.5-40.5-25-49.5-8q-27 0-50 8t-40 25-27 43.5-10 63.5z"/><glyph unicode=""" horiz-adv-x="823" d="M330 1462l-41-528h-115l-41 528h197zm360 0l-41-528h-114l-41 528h196z"/><glyph unicode="#" horiz-adv-x="1323" d="M983 893l-63-328h280v-137h-307l-82-428h-147l84 428h-291l-82-428h-144l78 428h-258v137h285l65 328h-274v137h299l82 432h147l-82-432h293l84 432h144l-84-432h262v-137h-289zm-500-328h291l64 328h-291z"/><glyph unicode="$" d="M985 446q0-70-25-127t-71.5-99-113-69.5-150.5-39.5v-230h-138v221q-50 0-101 4.5t-99 13.5-90 22-74 30v172q33-16 76.5-32.5t91.5-29.5 98.5-21.5 97.5-8.5v434q-89 30-154.5 63t-108.5 75.5-64 97.5-21 129q0 67 24.5 122.5t70 97 110 68 143.5 35.5v180h138v-176q100-5 184.5-26t151.5-52l-66-145q-56 25-126 45.5t-144 26.5v-422q88-31 155.5-64t113-74.5 68.5-95 23-125.5zm-176 0q0 33-10 60.5t-31.5 50-56.5 41.5-86 37v-373q93 14 138.5 63t45.5 121zm-494 603q0-36 8.5-64.5t28.5-52 53-42.5 82-36v369q-89-16-130.5-60.5t-41.5-113.5z"/><glyph unicode="%" horiz-adv-x="1690" d="M250 1026q0-165 35.5-247.5t115.5-82.5q156 0 156 330 0 328-156 328-80 0-115.5-81.5t-35.5-246.5zm455 0q0-108-18-194t-55-145-94.5-90.5-136.5-31.5q-73 0-129 31.5t-94 90.5-57 145-19 194 17.5 193 54 143.5 93 89.5 134.5 31q75 0 131.5-31t95-89.5 58-143.5 19.5-193zm428-586q0-165 35.5-247t115.5-82q156 0 156 329 0 328-156 328-80 0-115.5-81.5t-35.5-246.5zm454 0q0-108-17.5-193.5t-54.5-144.5-94.5-90.5-136.5-31.5q-74 0-130 31.5t-93.5 90.5-56.5 144.5-19 193.5 17.5 193 54 143.5 93 89.5 134.5 31q75 0 131.5-31t94.5-89.5 57.5-143.5 19.5-193zm-256 1022l-811-1462h-158l812 1462h157z"/><glyph unicode="&" horiz-adv-x="1438" d="M422 1165q0-34 8-66.5t24.5-65 42.5-66 62-70.5q59 35 102 66t71 63 42 67 14 76q0 36-12.5 66.5t-36 52.5-56.5 34.5-75 12.5q-86 0-136-44.5t-50-125.5zm135-1024q58 0 107 11.5t91 31.5 78 47 68 58l-387 407q-52-33-92-64.5t-67.5-67.5-41.5-78.5-14-98.5q0-54 17.5-99.5t50.5-78 81-50.5 109-18zm-448 240q0 78 20 139t58.5 111 94 93 126.5 85q-31 36-61 74.5t-52.5 82-36.5 93-14 106.5q0 75 25 134.5t72 101 116 63 157 21.5q83 0 148.5-21.5t111-63 69.5-101 24-134.5q0-64-25-118.5t-67-101-96.5-86-114.5-75.5l352-372q27 29 48.5 59t38.5 64 30.5 73 23.5 86h184q-15-66-35.5-121.5t-47-104.5-59-91.5-71.5-83.5l277-293h-225l-168 172q-49-45-97-80.5t-102-60-116-38-140-13.5q-105 0-188.5 26.5t-141 78-88 126-30.5 170.5z"/><glyph unicode="'" horiz-adv-x="463" d="M330 1462l-41-528h-115l-41 528h197z"/><glyph unicode="(" horiz-adv-x="616" d="M82 561q0 125 18 246.5t55 236 93.5 220 134.5 198.5h172q-140-193-212.5-424t-72.5-475q0-119 18.5-237t54-231 88.5-219 122-200h-170q-78 90-134.5 193t-93.5 215.5-55 232.5-18 244z"/><glyph unicode=")" horiz-adv-x="616" d="M535 561q0-124-18-244t-55.5-232.5-94-215.5-134.5-193h-170q69 94 122 200t89 219 54 231 18 237q0 244-72 475t-213 424h172q78-93 134.5-198.5t94-220 55.5-236 18-246.5z"/><glyph unicode="*" d="M664 1556l-43-393 397 111 26-193-378-28 245-326-178-96-176 358-158-358-184 96 242 326-375 28 29 193 391-111-43 393h205z"/><glyph unicode="+" d="M489 647h-387v150h387v389h150v-389h387v-150h-387v-385h-150v385z"/><glyph unicode="," horiz-adv-x="512" d="M362 238l15-23q-14-54-33.5-115t-43-123-49-123.5-50.5-117.5h-138q15 61 29.5 127t28 131.5 24.5 128 19 115.5h198z"/><glyph unicode="-" horiz-adv-x="659" d="M82 465v168h496v-168h-496z"/><glyph unicode="." horiz-adv-x="549" d="M147 111q0 38 10 64.5t27 43 40 24 50 7.5q26 0 49.5-7.5t40.5-24 27-43 10-64.5q0-37-10-63.5t-27-43.5-40.5-25-49.5-8q-27 0-50 8t-40 25-27 43.5-10 63.5z"/><glyph unicode="/" horiz-adv-x="764" d="M743 1462l-544-1462h-179l545 1462h178z"/><glyph unicode="0" d="M1032 733q0-177-25.5-317t-82-237-145.5-148-216-51q-118 0-205.5 51t-145 148-86 237-28.5 317 25.5 317 81 236.5 144 147.5 214.5 51q119 0 207-50.5t146-147 87-236.5 29-318zm-749 0q0-150 15-262t48-186.5 86.5-112 130.5-37.5 131 37 88.5 111 50 186.5 15.5 263.5q0 150-15.5 262t-50 186-88.5 111-131 37-130.5-37-86.5-111-48-186-15-262z"/><glyph unicode="1" d="M711 0h-176v913q0 43 .5 92t2 97.5 3 93 2.5 78.5q-17-18-30-31t-26.5-25-28.5-25.5-36-31.5l-148-121-96 123 383 299h150v-1462z"/><glyph unicode="2" d="M1008 0h-912v156l350 381q75 81 134 148t100.5 131 63.5 128.5 22 140.5q0 59-17 104t-48.5 76.5-74.5 47.5-96 16q-95 0-171.5-38.5t-145.5-98.5l-102 119q40 36 86 67.5t99 54.5 112 36.5 124 13.5q96 0 173.5-27t131.5-77.5 83.5-123 29.5-163.5q0-85-26.5-162t-73-151.5-111-149.5-139.5-156l-281-299v-8h689v-166z"/><glyph unicode="3" d="M961 1120q0-73-23-133t-64.5-104-99.5-72.5-129-40.5v-6q177-22 269-112.5t92-235.5q0-96-32.5-176t-98.5-138-167-90-239-32q-109 0-205.5 17t-181.5 62v170q87-46 188.5-71t194.5-25q92 0 159 20t110.5 57 64 91 20.5 121q0 68-26.5 116.5t-75.5 80-119.5 46.5-159.5 15h-133v151h133q81 0 144 20t105.5 57 64.5 88 22 112q0 52-18 93t-51 69.5-79 43.5-102 15q-107 0-188.5-33.5t-155.5-87.5l-92 125q38 31 84.5 58t101.5 47.5 117.5 32.5 132.5 12q108 0 189.5-27t136.5-75.5 83-115 28-145.5z"/><glyph unicode="4" d="M1087 328h-213v-328h-176v328h-675v159l663 983h188v-976h213v-166zm-389 166v356q0 56 1.5 117.5t3.5 120 4.5 109.5 3.5 85h-9q-7-20-17.5-44.5t-23-49-25.5-47.5-24-39l-411-608h497z"/><glyph unicode="5" d="M545 897q99 0 184.5-27.5t149-81.5 99.5-134 36-185q0-114-34-205t-101-154-165.5-96.5-226.5-33.5q-51 0-100.5 5t-95 14.5-86.5 24.5-74 35v172q33-23 77.5-41t93.5-30 98.5-18.5 91.5-6.5q79 0 141 18.5t105 57.5 66 98 23 140q0 143-88 218.5t-256 75.5q-27 0-58.5-2.5t-63-6.5-60-8.5-49.5-8.5l-90 57 55 688h690v-166h-532l-39-419q32 6 84.5 13t124.5 7z"/><glyph unicode="6" d="M113 625q0 105 10.5 209t37 199.5 72.5 177.5 117 142.5 170 95 232 34.5q19 0 42-1t46.5-3.5 45-6 38.5-8.5v-155q-35 12-79 18t-87 6q-90 0-158.5-21.5t-118.5-60.5-83.5-93-54.5-119.5-31-139.5-13-154h12q20 36 48.5 67.5t66.5 54 85.5 35.5 106.5 13q95 0 172-29.5t131-86.5 83.5-139.5 29.5-188.5q0-114-31-205t-89-154.5-140-97.5-184-34q-100 0-187.5 39t-151.5 119-101 201-37 286zm475-492q60 0 109.5 20.5t85.5 62 55.5 105 19.5 150.5q0 70-16.5 125.5t-49.5 94.5-82.5 60-115.5 21q-67 0-122.5-23.5t-94.5-61-60.5-85.5-21.5-96q0-67 18.5-133.5t55-119.5 91.5-86.5 128-33.5z"/><glyph unicode="7" d="M281 0l563 1296h-754v166h940v-145l-555-1317h-194z"/><glyph unicode="8" d="M565 1485q84 0 158.5-22t131-66 89.5-110 33-154q0-67-20-121t-55-97.5-83-78-104-62.5q58-31 113.5-69t99-85.5 70-106.5 26.5-132q0-92-33.5-166.5t-94-126.5-145-80-186.5-28q-110 0-195.5 27t-144 77.5-89 123.5-30.5 165q0 75 22.5 135t60.5 108 90 85 110 65q-49 31-92 67.5t-74.5 81.5-50 99.5-18.5 120.5q0 87 33.5 152.5t90.5 109.5 131.5 66 155.5 22zm-280-1114q0-53 16-97.5t50-76 86-49 124-17.5q70 0 123.5 17.5t89.5 50 54 78.5 18 102q0 52-19.5 94t-56 78-87.5 68-114 63l-30 14q-126-60-190-137.5t-64-187.5zm278 962q-106 0-168.5-53t-62.5-154q0-57 17.5-98t48.5-73 74.5-57.5 94.5-49.5q48 22 90.5 48t74 59 49.5 75 18 96q0 101-63 154t-173 53z"/><glyph unicode="9" d="M1028 838q0-105-10.5-209.5t-37-199.5-72.5-177.5-117-142.5-170-94.5-232-34.5q-19 0-42 1t-46 3.5-45 5.5-39 8v156q35-13 79-19t87-6q135 0 222 47t138 127.5 72.5 187.5 26.5 226h-13q-20-36-48-67t-66-54-86-36-107-13q-95 0-172 29.5t-131 86.5-83.5 139.5-29.5 188.5q0 114 31.5 205.5t89 155 140 97.5 184.5 34q101 0 188-39t151-119 101-201.5 37-285.5zm-475 491q-60 0-109.5-20t-85.5-62-55.5-105.5-19.5-150.5q0-70 16.5-125.5t49.5-94.5 82.5-60 115.5-21q68 0 123 23.5t94 61 60.5 85.5 21.5 96q0 67-18.5 133.5t-55 120-91.5 86.5-128 33z"/><glyph unicode=":" horiz-adv-x="549" d="M147 111q0 38 10 64.5t27 43 40 24 50 7.5q26 0 49.5-7.5t40.5-24 27-43 10-64.5q0-37-10-63.5t-27-43.5-40.5-25-49.5-8q-27 0-50 8t-40 25-27 43.5-10 63.5zm0 876q0 39 10 65.5t27 43 40 23.5 50 7q26 0 49.5-7t40.5-23.5 27-43 10-65.5q0-37-10-63t-27-43-40.5-25-49.5-8q-27 0-50 8t-40 25-27 43-10 63z"/><glyph unicode=";" horiz-adv-x="549" d="M362 238l15-23q-14-54-33.5-115t-43-123-49-123.5-50.5-117.5h-138q15 61 29.5 127t28 131.5 24.5 128 19 115.5h198zm-215 749q0 39 10 65.5t27 43 40 23.5 50 7q26 0 49.5-7t40.5-23.5 27-43 10-65.5q0-37-10-63t-27-43-40.5-25-49.5-8q-27 0-50 8t-40 25-27 43-10 63z"/><glyph unicode="<" d="M1026 238l-924 424v102l924 481v-160l-735-364 735-322v-161z"/><glyph unicode="=" d="M102 852v149h924v-149h-924zm0-410v150h924v-150h-924z"/><glyph unicode=">" d="M102 399l736 322-736 364v160l924-481v-102l-924-424v161z"/><glyph unicode="?" horiz-adv-x="872" d="M281 414v37q0 57 7.5 103t27 86 52.5 78.5 83 80.5q48 41 82 74.5t55.5 68 32 74 10.5 92.5q0 48-15 87.5t-43.5 68-71 44-98.5 15.5q-83 0-158-26t-145-60l-63 145q81 42 175 71.5t191 29.5q93 0 167.5-25.5t126.5-73.5 80-117.5 28-156.5q0-67-13.5-119.5t-40.5-97.5-67-87-94-89q-52-45-85-78.5t-52-65-26-64.5-7-77v-18h-139zm-48-303q0 38 10 64.5t27 43 40 24 50 7.5q26 0 49.5-7.5t40.5-24 27-43 10-64.5q0-37-10-63.5t-27-43.5-40.5-25-49.5-8q-27 0-50 8t-40 25-27 43.5-10 63.5z"/><glyph unicode="@" horiz-adv-x="1774" d="M1665 731q0-62-9.5-124.5t-28-119-47-105-66.5-84.5-86.5-56.5-106.5-20.5q-45 0-81.5 15t-62.5 40-42.5 57.5-22.5 67.5h-4q-18-37-45-70t-62.5-57.5-80-38.5-97.5-14q-77 0-136.5 28t-100.5 78.5-62.5 121.5-21.5 157q0 101 29.5 185t85 145 134.5 95 177 34q45 0 90-4t86-11 75.5-15.5 57.5-16.5l-23-416q-1-22-1.5-35.5t-.5-21.5v-19q0-53 10.5-87t27.5-54 38.5-27.5 44.5-7.5q46 0 81 30.5t58.5 82.5 35.5 122 12 148q0 142-43 252.5t-119 186.5-180.5 115.5-227.5 39.5q-169 0-298-55.5t-216.5-155-132.5-236-45-298.5q0-151 39.5-268t116-197 190-121 260.5-41q61 0 120.5 7t115 19 105.5 27.5 93 32.5v-141q-86-38-194-60t-238-22q-179 0-319.5 51t-238 148.5-148.5 238-51 319.5q0 188 59 350.5t168.5 281.5 265 187 348.5 68q156 0 287-50.5t226.5-145 148.5-230 53-305.5zm-1003-129q0-133 50.5-192.5t135.5-59.5q55 0 94 22.5t64 64 38 99 17 126.5l14 253q-28 8-66.5 14.5t-80.5 6.5q-74 0-124.5-29t-82-76-45.5-107-14-122z"/><glyph unicode="A" horiz-adv-x="1245" d="M1055 0l-160 453h-545l-162-453h-188l537 1468h170l538-1468h-190zm-219 618l-148 424q-6 18-14.5 44t-17.5 56-18 62.5-17 63.5q-7-31-16-64t-18-63.5-17.5-56-14.5-42.5l-145-424h426z"/><glyph unicode="B" horiz-adv-x="1272" d="M199 1462h399q128 0 225.5-19.5t163-63 98.5-114 33-173.5q0-62-19.5-116t-56.5-95-91.5-68.5-123.5-36.5v-10q69-12 129.5-34.5t105.5-62 71-99.5 26-146q0-100-32.5-178.5t-94-133-149.5-83.5-199-29h-485v1462zm186-620h244q84 0 141 15t92 44.5 50.5 74 15.5 103.5q0 120-77 172t-243 52h-223v-461zm0-156v-528h266q88 0 147.5 20t96 56 52.5 86.5 16 111.5q0 56-16.5 103t-54 80.5-99.5 52-154 18.5h-254z"/><glyph unicode="C" horiz-adv-x="1235" d="M793 1319q-107 0-194-40.5t-148.5-116.5-95-185-33.5-246q0-141 29.5-250.5t88.5-184.5 147-114 206-39q89 0 169 17.5t158 40.5v-162q-39-15-78-26.5t-81.5-18.5-91-10.5-107.5-3.5q-164 0-284 54t-198.5 153-116.5 238-38 308q0 166 43.5 304t128 237 209.5 154 287 55q108 0 206-22t177-64l-78-156q-63 32-137 55t-168 23z"/><glyph unicode="D" horiz-adv-x="1401" d="M1276 745q0-185-48-324.5t-139-233-223.5-140.5-300.5-47h-366v1462h407q153 0 277-46t211-136.5 134.5-224.5 47.5-310zm-197-6q0 146-33 252.5t-96 175.5-155 102.5-209 33.5h-201v-1143h162q264 0 398 146t134 433z"/><glyph unicode="E" horiz-adv-x="1081" d="M958 0h-759v1462h759v-164h-573v-452h535v-162h-535v-520h573v-164z"/><glyph unicode="F" horiz-adv-x="1006" d="M385 0h-186v1462h759v-164h-573v-516h535v-164h-535v-618z"/><glyph unicode="G" horiz-adv-x="1413" d="M782 772h484v-717q-55-18-111-32t-115-23.5-124-14.5-140-5q-157 0-278 52.5t-204 150-126 237-43 313.5q0 172 47.5 311t138.5 236.5 224.5 150 304.5 52.5q111 0 213-22t190-64l-72-162q-36 17-77.5 32t-85.5 26.5-90.5 18.5-92.5 7q-122 0-216-40.5t-157.5-116.5-96.5-185-33-246q0-130 27.5-238t87.5-186 155-121 229-43q44 0 80.5 2.5t67.5 6.5 58.5 9.5 53.5 10.5v436h-299v164z"/><glyph unicode="H" horiz-adv-x="1436" d="M1237 0h-186v682h-666v-682h-186v1462h186v-616h666v616h186v-1462z"/><glyph unicode="I" horiz-adv-x="694" d="M612 0h-530v102l172 41v1176l-172 41v102h530v-102l-172-41v-1176l172-41v-102z"/><glyph unicode="J" horiz-adv-x="555" d="M-29-389q-51 0-89 6.5t-66 17.5v160q34-9 73-14.5t84-5.5q37 0 74.5 9.5t68 34.5 49.5 69 19 112v1462h187v-1442q0-105-29.5-182t-82-127.5-126-75-162.5-24.5z"/><glyph unicode="K" horiz-adv-x="1186" d="M1186 0h-211l-451 698-139-114v-584h-186v1462h186v-731l121 168 452 563h209l-520-637z"/><glyph unicode="L" horiz-adv-x="1006" d="M199 0v1462h186v-1296h573v-166h-759z"/><glyph unicode="M" horiz-adv-x="1782" d="M803 0l-443 1280h-8q6-74 10-147 4-63 6.5-132.5t2.5-126.5v-874h-172v1462h276l412-1192h6l414 1192h276v-1462h-186v887q0 52 2 119t5 128q4 71 7 144h-8l-447-1278h-153z"/><glyph unicode="N" horiz-adv-x="1493" d="M1294 0h-215l-719 1210h-8q6-77 10-153 4-65 6.5-136t2.5-128v-793h-172v1462h213l716-1204h7q-3 76-7 150-1 32-2.5 65.5l-3 67-2 64.5-.5 57v800h174v-1462z"/><glyph unicode="O" horiz-adv-x="1520" d="M1393 733q0-169-40.5-308t-120.5-238-198.5-153-273.5-54q-163 0-282.5 54t-198 153-116.5 238.5-38 309.5 38 308.5 117 236.5 199 151.5 283 53.5q155 0 272.5-53.5t197.5-152 120.5-237 40.5-309.5zm-1071 0q0-137 26-246.5t79.5-186 136-117 196.5-40.5 196.5 40.5 136 117 78.5 186 25 246.5q0 138-25 247t-78 184.5-135 116-196 40.5-197-40.5-137-116-80-184.5-26-247z"/><glyph unicode="P" horiz-adv-x="1180" d="M1075 1034q0-91-27.5-175t-90.5-148.5-166.5-103-255.5-38.5h-150v-569h-186v1462h362q134 0 231-28.5t160-83 93-134.5 30-182zm-690-307h129q93 0 162.5 16t115 51.5 68.5 92 23 137.5q0 142-82 210.5t-256 68.5h-160v-576z"/><glyph unicode="Q" horiz-adv-x="1518" d="M1393 733q0-131-24.5-244t-72-203.5-118.5-156.5-164-104q43-94 111.5-165.5t158.5-131.5l-121-142q-103 73-189.5 172t-137.5 226q-17-2-37.5-3t-38.5-1q-163 0-282.5 54t-198 153-116.5 238.5-38 309.5 38 308.5 117 236.5 199 151.5 283 53.5q155 0 272.5-53.5t197.5-152 120.5-237 40.5-309.5zm-1071 0q0-137 26-246.5t79.5-186 136-117 196.5-40.5 196.5 40.5 136 117 78.5 186 25 246.5q0 138-25 247t-78 184.5-135 116-196 40.5-197-40.5-137-116-80-184.5-26-247z"/><glyph unicode="R" horiz-adv-x="1208" d="M385 604v-604h-186v1462h356q266 0 393-103t127-312q0-87-24.5-152t-65-111.5-92.5-77.5-107-51l398-655h-219l-351 604h-229zm0 158h164q90 0 153 17.5t103.5 52 59 86 18.5 120.5q0 72-20.5 122t-62 82-105 46.5-150.5 14.5h-160v-541z"/><glyph unicode="S" horiz-adv-x="1063" d="M969 391q0-97-34.5-173.5t-98.5-129.5-156-80.5-207-27.5q-111 0-207.5 17.5t-161.5 51.5v178q34-16 77.5-31.5t91.5-27.5 99-19.5 101-7.5q160 0 236.5 60t76.5 172q0 54-14.5 94t-51 73.5-97.5 65-154 68.5q-89 35-154.5 76.5t-108 93.5-63 118-20.5 150q0 88 32 157t90 116.5 138.5 72.5 177.5 25q119 0 214-22.5t169-57.5l-67-156q-65 29-147.5 50.5t-170.5 21.5q-122 0-189-56.5t-67-152.5q0-57 15-98.5t50-75 92.5-63 141.5-62.5q91-36 159.5-74t114.5-86 69.5-111 23.5-149z"/><glyph unicode="T" horiz-adv-x="1063" d="M625 0h-187v1298h-418v164h1022v-164h-417v-1298z"/><glyph unicode="U" horiz-adv-x="1430" d="M1245 1464v-948q0-114-33-212t-99.5-170-167-113-236.5-41q-128 0-226 38.5t-164.5 109.5-100.5 170.5-34 221.5v942h187v-952q0-175 86.5-271t261.5-96q89 0 153 27t105 76 61 117 21 149v952h186z"/><glyph unicode="V" horiz-adv-x="1163" d="M965 1462h198l-489-1462h-187l-487 1462h197l295-927q29-91 50-175.5t38-158.5q15 74 38 158.5t54 181.5z"/><glyph unicode="W" horiz-adv-x="1810" d="M809 1462h197l229-856q15-56 29.5-112t27-108.5 22-99.5 15.5-85q4 38 10 83t14 94.5 17.5 101 20.5 100.5l200 882h199l-367-1462h-188l-254 938q-14 51-27 105t-24 101q-12 55-23 107-11-51-22-106-10-47-22.5-103t-26.5-110l-242-932h-188l-386 1462h197l223-889q12-46 22-95.5t18.5-98.5 15.5-94.5 12-83.5q5 37 12.5 86t17.5 103 21.5 109.5 24.5 104.5z"/><glyph unicode="X" horiz-adv-x="1120" d="M1120 0h-211l-354 635-367-635h-188l453 764-422 698h198l332-559 334 559h190l-421-692z"/><glyph unicode="Y" horiz-adv-x="1079" d="M539 723l340 739h200l-446-893v-569h-187v559l-446 903h203z"/><glyph unicode="Z" horiz-adv-x="1104" d="M1022 0h-940v145l711 1151h-691v166h899v-145l-710-1151h731v-166z"/><glyph unicode="[" horiz-adv-x="621" d="M569-324h-405v1786h405v-149h-223v-1487h223v-150z"/><glyph unicode="\" horiz-adv-x="764" d="M201 1462l544-1462h-178l-544 1462h178z"/><glyph unicode="]" horiz-adv-x="621" d="M51-174h223v1487h-223v149h406v-1786h-406v150z"/><glyph unicode="^" horiz-adv-x="1090" d="M41 549l459 924h102l447-924h-161l-337 735-349-735h-161z"/><glyph unicode="_" horiz-adv-x="842" d="M846-324h-850v140h850v-140z"/><glyph unicode="`" horiz-adv-x="1182" d="M786 1241h-120q-35 28-76 69.5t-79.5 85.5-70 84.5-47.5 67.5v21h219q16-34 37.5-74.5t44.5-81 47-78.5 45-67v-27z"/><glyph unicode="a" horiz-adv-x="1087" d="M793 0l-37 152h-8q-33-45-66-77.5t-72-53.5-87-31-111-10q-69 0-127 19.5t-100.5 60-66.5 102-24 145.5q0 164 115.5 252t351.5 96l184 7v69q0 67-14.5 112t-42 72.5-68 39.5-92.5 12q-83 0-154.5-24t-137.5-58l-64 137q74 40 165 68t191 28q102 0 176.5-20.5t123-65 72.5-113.5 24-167v-752h-131zm-334 127q61 0 113 19t90 57.5 59.5 97 21.5 137.5v99l-143-7q-90-4-151-20t-97.5-44.5-52.5-69-16-91.5q0-92 48.5-135t127.5-43z"/><glyph unicode="b" horiz-adv-x="1200" d="M670 1118q94 0 171-36t131.5-107.5 84.5-177.5 30-246q0-141-30-247.5t-84.5-178.5-131.5-108.5-171-36.5q-59 0-107 13t-86.5 34.5-68 50.5-52.5 61h-12l-37-139h-133v1556h182v-376q0-35-1-74.5t-3-73.5q-2-40-4-78h8q23 35 52 65t67.5 52 86.5 34.5 108 12.5zm-35-151q-80 0-133.5-25.5t-86-77.5-46-130-13.5-183q0-101 13.5-179.5t46-132 86.5-81 135-27.5q135 0 198.5 109t63.5 313q0 208-63.5 311t-200.5 103z"/><glyph unicode="c" horiz-adv-x="948" d="M594-20q-101 0-189 31.5t-153 100-102 175-37 256.5q0 157 38 266.5t104.5 178 155.5 99.5 191 31q78 0 152.5-17t124.5-42l-54-154q-23 10-51 19.5t-58 17-59 12-55 4.5q-157 0-229-100.5t-72-312.5q0-211 72.5-308.5t220.5-97.5q81 0 146.5 18.5t119.5 43.5v-162q-54-29-115.5-44t-150.5-15z"/><glyph unicode="d" horiz-adv-x="1200" d="M852 147h-8q-22-34-51.5-64.5t-68-53.5-86.5-36-108-13q-93 0-170 36t-132 107.5-85 177.5-30 246q0 141 30 247.5t85 178.5 132 108.5 170 36.5q59 0 107-13t86.5-35 68.5-51 52-61h12q-3 34-6 65-2 26-4 53.5t-2 43.5v436h182v-1556h-147zm-287-16q76 0 128.5 23t85 70 48 117.5 17.5 164.5v41q0 101-13.5 179.5t-46 132-86.5 81-135 27.5q-135 0-198.5-109t-63.5-313q0-209 63.5-311.5t200.5-102.5z"/><glyph unicode="e" horiz-adv-x="1096" d="M608-20q-110 0-201 37t-156.5 108-101.5 176-36 240q0 136 33 243t93 181.5 143.5 113.5 184.5 39q99 0 178-35.5t134-100 84.5-155 29.5-200.5v-113h-692q5-193 81.5-284t227.5-91q51 0 94.5 5t84 14.5 78.5 24 77 32.5v-162q-40-19-78.5-33t-79-23-84-13-94.5-4zm-45 987q-114 0-180.5-78t-77.5-227h492q0 68-13.5 124.5t-42 96.5-72.5 62-106 22z"/><glyph unicode="f" horiz-adv-x="674" d="M651 961h-245v-961h-183v961h-194v75l194 68v96q0 107 22.5 177.5t65 112.5 104.5 59.5 140 17.5q59 0 108.5-11.5t88.5-25.5l-47-141q-31 11-67.5 19.5t-76.5 8.5-69-9.5-48-33.5-28.5-65.5-9.5-106.5v-104h245v-137z"/><glyph unicode="g" horiz-adv-x="1061" d="M1020 1098v-113l-197-27q28-35 47-89.5t19-123.5q0-76-23.5-140.5t-71-111.5-117.5-73.5-163-26.5q-22 0-44 .5t-36 3.5q-17-10-33.5-22.5t-30-28.5-22-36-8.5-44q0-27 12-43.5t32.5-25.5 48.5-12 59-3h176q93 0 157-23.5t104.5-63.5 58.5-94.5 18-115.5q0-88-32.5-158t-99.5-118.5-169.5-74.5-241.5-26q-107 0-187 21t-133 61-79.5 96.5-26.5 127.5q0 60 19.5 105.5t52.5 78.5 76.5 54 90.5 32q-42 19-69 60t-27 94q0 61 32 105.5t101 86.5q-43 18-78.5 49.5t-60 72-38 88.5-13.5 99q0 89 25 159t74 119 122 75 170 26q37 0 76.5-5.5t66.5-14.5h363zm-811-1278q0-37 13-69t42.5-55 78-36.5 120.5-13.5q186 0 278.5 57.5t92.5 165.5q0 46-12 75t-39.5 45.5-72.5 22.5-110 6h-176q-35 0-73-8t-69.5-30-52-60.5-20.5-99.5zm92 925q0-115 54-171t153-56q100 0 151.5 55.5t51.5 174.5q0 123-52.5 181t-152.5 58q-99 0-152-60t-53-182z"/><glyph unicode="h" horiz-adv-x="1206" d="M860 0v707q0 130-52.5 195t-164.5 65q-81 0-136-26t-88.5-77-48-125-14.5-170v-569h-182v1556h182v-462l-8-144h10q25 43 59.5 74.5t75.5 52.5 87 31 94 10q183 0 275.5-95.5t92.5-305.5v-717h-182z"/><glyph unicode="i" horiz-adv-x="530" d="M356 0h-182v1098h182v-1098zm-196 1395q0 60 30.5 87t75.5 27q22 0 41.5-6.5t34-20.5 23-35.5 8.5-51.5q0-58-31.5-86.5t-75.5-28.5q-45 0-75.5 28t-30.5 87z"/><glyph unicode="j" horiz-adv-x="530" d="M66-492q-48 0-79.5 7t-54.5 18v148q26-10 53-15.5t62-5.5q27 0 50 7.5t40.5 27 27 52 9.5 83.5v1268h182v-1256q0-77-17-138.5t-53-105-90.5-67-129.5-23.5zm94 1887q0 60 30.5 87t75.5 27q22 0 41.5-6.5t34-20.5 23-35.5 8.5-51.5q0-58-31.5-86.5t-75.5-28.5q-45 0-75.5 28t-30.5 87z"/><glyph unicode="k" horiz-adv-x="1016" d="M342 567l135 170 293 361h211l-401-475 428-623h-209l-336 504-109-82v-422h-180v1556h180v-714l-16-275h4z"/><glyph unicode="l" horiz-adv-x="530" d="M356 0h-182v1556h182v-1556z"/><glyph unicode="m" horiz-adv-x="1835" d="M1489 0v707q0 130-50 195t-155 65q-73 0-124-23.5t-83.5-69-47.5-113-15-155.5v-606h-183v707q0 130-49.5 195t-154.5 65q-77 0-129-26t-83.5-77-45-125-13.5-170v-569h-182v1098h148l26-148h10q24 43 57 74.5t72.5 52.5 84 31 90.5 10q120 0 199.5-44t117.5-138h8q26 47 62.5 81t80 56.5 91.5 33.5 98 11q175 0 263.5-95.5t88.5-305.5v-717h-182z"/><glyph unicode="n" horiz-adv-x="1206" d="M860 0v707q0 130-52.5 195t-164.5 65q-81 0-136-26t-88.5-77-48-125-14.5-170v-569h-182v1098h148l26-148h10q25 43 59.5 74.5t75.5 52.5 87 31 94 10q183 0 275.5-95.5t92.5-305.5v-717h-182z"/><glyph unicode="o" horiz-adv-x="1182" d="M1069 551q0-137-33.5-243.5t-96-179-151.5-110.5-200-38q-103 0-190 38t-150.5 110.5-99 179-35.5 243.5q0 136 33.5 241.5t95.5 178 151.5 110 200.5 37.5q103 0 190-37.5t150.5-110 99-178 35.5-241.5zm-768 0q0-209 68.5-314.5t222.5-105.5 221.5 105.5 67.5 314.5-68.5 312.5-222.5 103.5-221.5-103.5-67.5-312.5z"/><glyph unicode="p" horiz-adv-x="1200" d="M670-20q-59 0-107 13t-86.5 34.5-68 50.5-52.5 61h-12q3-34 6-65 2-26 4-53.5t2-43.5v-469h-182v1590h148l26-148h8q23 35 52 65.5t67.5 53 86.5 36 108 13.5q94 0 171-36t131.5-107.5 84.5-177.5 30-246q0-141-30-247.5t-84.5-178.5-131.5-108.5-171-36.5zm-35 987q-76 0-128.5-23t-85-70-48-117-17.5-165v-41q0-101 13.5-179.5t46-132 86.5-81 135-27.5q135 0 198.5 109t63.5 313q0 208-63.5 311t-200.5 103z"/><glyph unicode="q" horiz-adv-x="1200" d="M565 131q76 0 128.5 23t85 70 48 117.5 17.5 164.5v41q0 101-13.5 179.5t-46 132-86.5 81-135 27.5q-135 0-198.5-109t-63.5-313q0-209 63.5-311.5t200.5-102.5zm-35-151q-93 0-170 36t-132 107.5-85 177.5-30 246q0 141 30 247.5t85 178.5 132 108.5 170 36.5q59 0 107-13.5t86-36 68-53 53-65.5h8l27 148h147v-1590h-182v469q0 19 2 48t4 56q3 32 6 66h-12q-22-34-51.5-64.5t-68-53.5-86.5-36-108-13z"/><glyph unicode="r" horiz-adv-x="817" d="M649 1118q29 0 65-2.5t62-7.5l-24-168q-28 5-57.5 8.5t-55.5 3.5q-63 0-115-25.5t-89.5-73-58-114-20.5-147.5v-592h-182v1098h148l22-201h8q25 43 53.5 83t64 70.5 79.5 49 100 18.5z"/><glyph unicode="s" horiz-adv-x="924" d="M831 301q0-80-29-140t-83.5-100.5-131.5-60.5-173-20q-109 0-187 17.5t-137 51.5v166q31-16 69-31.5t80-27.5 86.5-19.5 88.5-7.5q65 0 110.5 11t74 31.5 41.5 50 13 65.5q0 31-10 56t-36.5 49.5-72.5 49.5-118 56-129.5 61-97.5 67-61.5 85.5-21.5 115.5q0 70 27.5 124.5t77.5 91.5 120 56 156 19q97 0 177.5-21t152.5-55l-63-147q-65 29-133.5 50.5t-139.5 21.5q-102 0-151-33.5t-49-95.5q0-35 11.5-61t39.5-49 75-46.5 117-52.5q72-30 128.5-60t96.5-67.5 61-85.5 21-115z"/><glyph unicode="t" horiz-adv-x="694" d="M506 129q18 0 40.5 2t43.5 5 38.5 7 26.5 7v-138q-13-6-33-12t-44-10.5-50-7-51-2.5q-62 0-115 16t-91.5 55-60.5 105.5-22 167.5v637h-155v81l155 78 78 230h105v-252h276v-137h-276v-637q0-97 31.5-146t103.5-49z"/><glyph unicode="u" horiz-adv-x="1206" d="M885 0l-27 147h-10q-25-43-59.5-74.5t-75.5-52-87-30.5-94-10q-91 0-160 23t-115 72-69.5 125-23.5 181v717h182v-707q0-130 53-195t164-65q81 0 136 26t88.5 76.5 48 124.5 14.5 170v570h182v-1098h-147z"/><glyph unicode="v" horiz-adv-x="981" d="M375 0l-375 1098h188l199-611q11-33 26-85t30-106 27.5-102 16.5-73h7q5 25 17 73t27 102 30 106 26 85l199 611h188l-375-1098h-231z"/><glyph unicode="w" horiz-adv-x="1528" d="M1008 0l-168 616q-4 18-10 40.5t-12 47.5-12.5 51-12.5 51q-14 58-29 120h-6q-14-63-27-121-11-50-23.5-103t-23.5-90l-172-612h-211l-281 1098h191l131-584q10-45 20-97.5t19-104 16-97 11-74.5h6q5 26 13.5 69.5t19 92 21.5 96 21 80.5l179 619h196l172-619q9-34 20.5-80t22.5-93.5 20-91.5 13-73h6q3 26 9.5 69.5t15.5 95.5 19.5 106.5 21.5 101.5l137 584h186l-284-1098h-215z"/><glyph unicode="x" horiz-adv-x="1024" d="M408 563l-353 535h207l250-410 250 410h207l-355-535 373-563h-207l-268 436-270-436h-207z"/><glyph unicode="y" horiz-adv-x="1001" d="M10 1098h189l215-613q14-40 28.5-84t27-88 21.5-85 13-76h6q5 25 16 68t24.5 91.5 28 95.5 25.5 80l199 611h188l-434-1241q-28-81-60.5-145.5t-75.5-109.5-101-69.5-138-24.5q-52 0-90 5.5t-65 11.5v145q21-5 53-8.5t67-3.5q48 0 83 11.5t61 33.5 44.5 54 33.5 73l57 160z"/><glyph unicode="z" horiz-adv-x="903" d="M821 0h-739v125l536 836h-503v137h688v-146l-524-815h542v-137z"/><glyph unicode="{" horiz-adv-x="725" d="M500-16q0-48 12-78.5t34.5-48 55-24 72.5-7.5v-150q-77 1-142.5 17.5t-113 52-74.5 90.5-27 133v334q0 103-65.5 146t-190.5 43v155q125 0 190.5 43t65.5 146v333q0 78 27 133t74.5 90.5 113 52 142.5 17.5v-149q-40-1-72.5-7.5t-55-24-34.5-48-12-78.5v-332q0-105-59.5-166.5t-174.5-81.5v-12q115-20 174.5-81t59.5-167v-331z"/><glyph unicode="|" d="M489 1556h150v-2048h-150v2048z"/><glyph unicode="}" horiz-adv-x="725" d="M225 315q0 106 59.5 167t174.5 81v12q-115 20-174.5 81.5t-59.5 166.5v332q0 48-12 78.5t-34.5 48-55 24-72.5 7.5v149q77-1 142.5-17.5t113-52 74.5-90.5 27-133v-333q0-52 16.5-88t49-58.5 80.5-32.5 110-10v-155q-125 0-190.5-43t-65.5-146v-334q0-78-27-133t-74.5-90.5-113-52-142.5-17.5v150q40 1 72.5 7.5t55 24 34.5 48 12 78.5v331z"/><glyph unicode="~" d="M530 651q-37 16-64.5 27t-50 17.5-43 9-42.5 2.5q-28 0-58-9.5t-59.5-26-57.5-38.5-53-47v162q100 108 248 108 29 0 54-2.5t52.5-9 61-19 80.5-32.5q37-16 64.5-27t51-17.5 43.5-9 42-2.5q28 0 58 9.5t59.5 26 57.5 38.5 52 47v-162q-99-108-248-108-29 0-54 2.5t-52.5 9-61 19-80.5 32.5z"/><glyph unicode="¡" horiz-adv-x="551" d="M213 676h121l51-1049h-223zm188 303q0-38-9.5-64.5t-27-43-40.5-24-50-7.5q-26 0-49 7.5t-40.5 24-27.5 43-10 64.5q0 37 10 63t27.5 43 40.5 25 49 8q27 0 50-8t40.5-25 27-43 9.5-63z"/><glyph unicode="¢" d="M831 197q-55-15-131-17v-200h-137v206q-87 13-156 50.5t-118 104-75 166-26 236.5q0 141 26.5 242.5t75 169.5 118 105.5 155.5 50.5v172h137v-164q72-3 140-19.5t114-39.5l-53-154q-23 10-51 19.5t-58 17-59.5 12-54.5 4.5q-157 0-229-101t-72-313q0-210 72.5-307.5t220.5-97.5q81 0 146.5 18.5t119.5 42.5v-161q-50-28-105-43z"/><glyph unicode="£" d="M666 1481q106 0 193-22.5t153-57.5l-66-144q-56 29-126.5 50.5t-145.5 21.5q-48 0-89-13.5t-71-43-46.5-76.5-16.5-113v-295h376v-137h-376v-211q0-62-11.5-106.5t-31-76.5-45-53.5-52.5-37.5h748v-166h-991v154q44 11 80.5 31.5t63 54.5 41.5 82.5 15 115.5v213h-198v137h198v324q0 87 29.5 155.5t82 116 125.5 72.5 161 25z"/><glyph unicode="¤" d="M186 723q0 59 17.5 112.5t48.5 100.5l-129 129 98 98 127-129q47 32 101 50t114 18 113.5-18 99.5-50l129 129 99-96-130-129q31-46 49.5-100.5t18.5-114.5-17.5-115-50.5-100l127-127-96-96-129 127q-46-31-99.5-48.5t-113.5-17.5-115 18-100 50l-127-127-96 96 127 127q-31 45-48.5 99t-17.5 114zm138 0q0-50 18.5-93.5t51-76 76-51.5 93.5-19q51 0 95.5 19t77.5 51.5 52 76 19 93.5q0 51-19 95.5t-52 77.5-77.5 52-95.5 19q-50 0-93.5-19t-76-52-51-77.5-18.5-95.5z"/><glyph unicode="¥" d="M563 723l346 739h191l-385-768h239v-137h-301v-158h301v-137h-301v-262h-178v262h-301v137h301v158h-301v137h234l-379 768h192z"/><glyph unicode="¦" d="M489 1556h150v-780h-150v780zm0-1267h150v-781h-150v781z"/><glyph unicode="§" horiz-adv-x="995" d="M137 809q0 51 13 92.5t35.5 73.5 51.5 54.5 60 37.5q-75 38-117.5 95t-42.5 141q0 61 27.5 110t77.5 83 120 52.5 156 18.5q97 0 175.5-20t150.5-52l-56-139q-65 28-135 47.5t-141 19.5q-99 0-150-29.5t-51-86.5q0-27 12-50t40.5-45 76-45.5 117.5-52.5q72-28 128.5-60.5t95.5-71.5 60-87.5 21-110.5q0-52-12-94.5t-32.5-76.5-46.5-58.5-54-40.5q69-38 107-92.5t38-132.5q0-71-29.5-126.5t-83.5-94-131.5-58.5-173.5-20q-108 0-186 16.5t-137 48.5v158q31-15 69-30t80-26.5 86.5-18.5 87.5-7q69 0 115.5 12t74 31.5 39 45 11.5 52.5q0 29-8.5 51.5t-34 45-72.5 47-123 55.5q-73 31-130.5 62t-97.5 70-60.5 89-20.5 117zm154 22q0-37 14-68.5t45.5-60.5 82-56.5 122.5-57.5l35-15q20 13 40.5 31t37 41 27 51 10.5 62q0 38-13 70t-45.5 61.5-86.5 58-136 58.5q-25-8-48.5-23.5t-42.5-38-30.5-51.5-11.5-62z"/><glyph unicode="¨" horiz-adv-x="1182" d="M307 1395q0 54 28 78t68 24q39 0 68-24.5t29-77.5-29-78-68-25q-40 0-68 25t-28 78zm375 0q0 54 28 78t68 24q19 0 36.5-6t30.5-18.5 21-31.5 8-46q0-53-29-78t-67-25q-40 0-68 25t-28 78z"/><glyph unicode="©" horiz-adv-x="1704" d="M891 1053q-61 0-108-22t-79-63.5-48.5-101.5-16.5-135q0-78 14.5-138t45-101 78-62.5 114.5-21.5q23 0 50 3.5t55.5 9.5 56.5 14.5 53 17.5v-131q-24-11-48.5-20t-51-16-56.5-10.5-65-3.5q-102 0-178 33t-126.5 94-76 146-25.5 188q0 101 27 184.5t79.5 143.5 129 93.5 176.5 33.5q63 0 129-16.5t125-45.5l-62-127q-52 26-100.5 40t-91.5 14zm-791-322q0 104 27 200t75.5 179.5 117.5 152.5 152.5 117.5 179.5 75.5 200 27 200-27 179.5-75.5 152.5-117.5 117.5-152.5 75.5-179.5 27-200-27-200-75.5-179.5-117.5-152-152.5-117.5-179.5-75.5-200-26.5-200 26.5-179.5 75.5-152.5 117.5-117.5 152-75.5 179.5-27 200zm109 0q0-133 50.5-250t138-204.5 204.5-138 250-50.5 250 50.5 204.5 138 138 204.5 50.5 250-50.5 250-138 204.5-204.5 138-250 50.5-250-50.5-204.5-138-138-204.5-50.5-250z"/><glyph unicode="ª" horiz-adv-x="678" d="M487 797l-28 82q-18-22-37.5-39.5t-43-30-51.5-19-63-6.5q-43 0-79 13t-62 38.5-40.5 64-14.5 89.5q0 102 70.5 156t213.5 59l99 4v31q0 72-30.5 100.5t-86.5 28.5q-48 0-93-14.5t-87-36.5l-48 100q51 26 109.5 44t118.5 18q125 0 184.5-53t59.5-175v-454h-91zm-110 313q-51-3-85-12t-54.5-24-29.5-36.5-9-50.5q0-51 25-73.5t67-22.5q34 0 63 10.5t50.5 32.5 34 54.5 12.5 76.5v49z"/><glyph unicode="«" horiz-adv-x="997" d="M82 553l309 414 117-78-238-348 238-348-117-78-309 411v27zm407 0l310 414 116-78-237-348 237-348-116-78-310 411v27z"/><glyph unicode="¬" d="M1026 797v-535h-149v385h-775v150h924z"/><glyph unicode="­" horiz-adv-x="659" d="M82 465zm0 0v168h496v-168h-496z"/><glyph unicode="®" horiz-adv-x="1704" d="M743 768h72q91 0 130.5 36t39.5 105q0 74-41.5 103.5t-130.5 29.5h-70v-274zm402 145q0-48-13.5-85.5t-36-66-51-48.5-59.5-33q67-110 120-197 23-37 44-72.5t37.5-63.5 26.5-45l10-17h-179l-206 352h-95v-352h-157v893h233q168 0 247-65t79-200zm-1045-182q0 104 27 200t75.5 179.5 117.5 152.5 152.5 117.5 179.5 75.5 200 27 200-27 179.5-75.5 152.5-117.5 117.5-152.5 75.5-179.5 27-200-27-200-75.5-179.5-117.5-152-152.5-117.5-179.5-75.5-200-26.5-200 26.5-179.5 75.5-152.5 117.5-117.5 152-75.5 179.5-27 200zm109 0q0-133 50.5-250t138-204.5 204.5-138 250-50.5 250 50.5 204.5 138 138 204.5 50.5 250-50.5 250-138 204.5-204.5 138-250 50.5-250-50.5-204.5-138-138-204.5-50.5-250z"/><glyph unicode="¯" horiz-adv-x="1024" d="M1030 1556h-1036v140h1036v-140z"/><glyph unicode="°" horiz-adv-x="877" d="M123 1167q0 65 25 122.5t67.5 100.5 100 68 122.5 25 122.5-25 100.5-68 68-100.5 25-122.5-25-122-68-99.5-100.5-67-122.5-24.5-122.5 24.5-100 67-67.5 99.5-25 122zm123 0q0-39 15-73.5t41-60.5 61-41 75-15 75 15 61.5 41 41.5 60.5 15 73.5q0 40-15 75.5t-41.5 62-61.5 42-75 15.5-75-15.5-61-42-41-62-15-75.5z"/><glyph unicode="±" d="M489 647h-387v150h387v389h150v-389h387v-150h-387v-385h-150v385zm-387-647v150h924v-150h-924z"/><glyph unicode="²" horiz-adv-x="678" d="M621 586h-572v112l209 228q57 62 93 104.5t56 76 27.5 63 7.5 63.5q0 65-33 97t-87 32q-51 0-97.5-25t-91.5-63l-78 94q54 48 120.5 80.5t148.5 32.5q60 0 108.5-16.5t82.5-48 52.5-77 18.5-102.5q0-50-14.5-93t-41.5-85.5-66.5-88-90.5-100.5l-148-157h396v-127z"/><glyph unicode="³" horiz-adv-x="678" d="M590 1255q0-78-40.5-131t-109.5-77q88-23 132-76t44-131q0-60-20-110t-61.5-85.5-104.5-55.5-149-20q-70 0-131.5 12.5t-118.5 43.5v133q63-34 129-53t119-19q98 0 142 41.5t44 114.5q0 74-53.5 107.5t-149.5 33.5h-98v113h98q92 0 134 39.5t42 103.5q0 32-10 55.5t-27.5 38.5-41 22-50.5 7q-59 0-107.5-20.5t-99.5-57.5l-69 96q29 23 59.5 41.5t64.5 31.5 72 20.5 82 7.5q69 0 121.5-17t87.5-47 52.5-71.5 17.5-90.5z"/><glyph unicode="´" horiz-adv-x="1182" d="M393 1268q22 29 45.5 67t47 78.5 44.5 81 37 74.5h219v-21q-16-27-47.5-67.5t-70-84.5-79-85.5-75.5-69.5h-121v27z"/><glyph unicode="µ" horiz-adv-x="1217" d="M356 391q0-130 53-195t164-65q82 0 137 26t88.5 76.5 47.5 124.5 14 170v570h182v-1098h-147l-27 147h-10q-48-83-120-125t-175-42q-72 0-125 23t-88 65q1-38 3-78 2-35 2.5-77.5t.5-84.5v-320h-182v1590h182v-707z"/><glyph unicode="¶" horiz-adv-x="1341" d="M1126-260h-120v1657h-207v-1657h-121v819q-61-18-146-18-95 0-172.5 25.5t-132 84.5-84.5 155-30 236q0 147 32.5 245.5t92 158.5 142.5 85 183 25h563v-1816z"/><glyph unicode="·" horiz-adv-x="549" d="M147 723q0 38 10 64.5t27 43 40 24 50 7.5q26 0 49.5-7.5t40.5-24 27-43 10-64.5q0-37-10-63t-27-43-40.5-25-49.5-8q-27 0-50 8t-40 25-27 43-10 63z"/><glyph unicode="¸" horiz-adv-x="420" d="M408-287q0-97-70.5-151t-220.5-54q-22 0-44.5 3t-37.5 6v108q15-3 39.5-4.5t40.5-1.5q71 0 111 21.5t40 70.5q0 24-13 41.5t-36 30.5-54.5 22.5-68.5 18.5l90 176h121l-57-115q34-8 63-21t50.5-33.5 34-49.5 12.5-68z"/><glyph unicode="¹" horiz-adv-x="678" d="M307 1462h135v-876h-145v516q0 25 .5 55t2 60 3 58 2.5 50q-14-17-33-37t-41-37l-94-73-74 96z"/><glyph unicode="º" horiz-adv-x="717" d="M651 1133q0-83-20.5-148t-59-109.5-93-68-122.5-23.5q-63 0-116 23.5t-92 68-60.5 109.5-21.5 148 20.5 147.5 58.5 108.5 92.5 67 122.5 23q62 0 115.5-23t92.5-67 61-108.5 22-147.5zm-454 0q0-119 37.5-179.5t123.5-60.5q85 0 122.5 60.5t37.5 179.5q0 120-37.5 177.5t-122.5 57.5q-86 0-123.5-57.5t-37.5-177.5z"/><glyph unicode="»" horiz-adv-x="997" d="M918 526l-310-411-116 78 237 348-237 348 116 78 310-414v-27zm-408 0l-309-411-117 78 238 348-238 348 117 78 309-414v-27z"/><glyph unicode="¼" horiz-adv-x="1509" d="M1419 193h-125v-192h-143v192h-375v111l377 579h141v-563h125v-127zm-268 127v195q0 42 1.5 91.5t4.5 98.5q-5-11-15-29.5t-21-39.5-23-41l-21-35-155-240h229zm-844 1142h135v-876h-145v516q0 25 .5 55t2 60 3 58 2.5 50q-14-17-33-37t-41-37l-94-73-74 96zm895 0l-811-1462h-157l811 1462h157z"/><glyph unicode="½" horiz-adv-x="1509" d="M44 0zm244 1462h135v-876h-145v516q0 25 .5 55t2 60 3 58 2.5 50q-14-17-33-37t-41-37l-94-73-74 96zm893 0l-811-1462h-157l811 1462h157zm259-1461h-572v112l209 228q57 62 93 104.5t56 76 27.5 63 7.5 63.5q0 65-33 97t-87 32q-51 0-97.5-25t-91.5-63l-78 94q54 48 120.5 80.5t148.5 32.5q60 0 108.5-16.5t82.5-48 52.5-77 18.5-102.5q0-50-14.5-93t-41.5-85.5-66.5-88-90.5-100.5l-148-157h396v-127z"/><glyph unicode="¾" horiz-adv-x="1509" d="M1486 193h-125v-192h-143v192h-375v111l377 579h141v-563h125v-127zm-268 127v195q0 42 1.5 91.5t4.5 98.5q-5-11-15-29.5t-21-39.5-23-41l-21-35-155-240h229zm-628 935q0-78-40.5-131t-109.5-77q88-23 132-76t44-131q0-60-20-110t-61.5-85.5-104.5-55.5-149-20q-70 0-131.5 12.5t-118.5 43.5v133q63-34 129-53t119-19q98 0 142 41.5t44 114.5q0 74-53.5 107.5t-149.5 33.5h-98v113h98q92 0 134 39.5t42 103.5q0 32-10 55.5t-27.5 38.5-41 22-50.5 7q-59 0-107.5-20.5t-99.5-57.5l-69 96q29 23 59.5 41.5t64.5 31.5 72 20.5 82 7.5q69 0 121.5-17t87.5-47 52.5-71.5 17.5-90.5zm706 207l-811-1462h-157l811 1462h157z"/><glyph unicode="¿" horiz-adv-x="872" d="M592 676v-37q0-58-8-103.5t-27.5-86-52-78.5-82.5-80q-48-41-82-74.5t-55.5-68-32-74-10.5-92.5q0-48 15-87.5t43.5-68 71-44 97.5-15.5q84 0 159 25.5t144 60.5l64-146q-82-42-176-71t-191-29q-93 0-167.5 25.5t-126 73.5-79.5 117-28 157q0 68 13.5 120t40 97 67 87 94.5 89q52 45 85 78.5t52 64.5 26 64.5 7 76.5v19h139zm47 303q0-38-9.5-64.5t-27-43-40.5-24-50-7.5q-26 0-49 7.5t-40.5 24-27.5 43-10 64.5q0 37 10 63t27.5 43 40.5 25 49 8q27 0 50-8t40.5-25 27-43 9.5-63z"/><glyph unicode="À" horiz-adv-x="1245" d="M0 0zm1055 0l-160 453h-545l-162-453h-188l537 1468h170l538-1468h-190zm-219 618l-148 424q-6 18-14.5 44t-17.5 56-18 62.5-17 63.5q-7-31-16-64t-18-63.5-17.5-56-14.5-42.5l-145-424h426zm-117 961h-120q-35 28-76 69.5t-79.5 85.5-70 84.5-47.5 67.5v21h219q16-34 37.5-74.5t44.5-81 47-78.5 45-67v-27z"/><glyph unicode="Á" horiz-adv-x="1245" d="M0 0zm1055 0l-160 453h-545l-162-453h-188l537 1468h170l538-1468h-190zm-219 618l-148 424q-6 18-14.5 44t-17.5 56-18 62.5-17 63.5q-7-31-16-64t-18-63.5-17.5-56-14.5-42.5l-145-424h426zm-302 988q22 29 45.5 67t47 78.5 44.5 81 37 74.5h219v-21q-16-27-47.5-67.5t-70-84.5-79-85.5-75.5-69.5h-121v27z"/><glyph unicode="Â" horiz-adv-x="1245" d="M0 0zm1055 0l-160 453h-545l-162-453h-188l537 1468h170l538-1468h-190zm-219 618l-148 424q-6 18-14.5 44t-17.5 56-18 62.5-17 63.5q-7-31-16-64t-18-63.5-17.5-56-14.5-42.5l-145-424h426zm117 961h-121q-51 34-105 82.5t-106 103.5q-54-55-107-103.5t-104-82.5h-121v27q26 29 60 67t67.5 78.5 63 81 45.5 74.5h192q16-34 45.5-74.5t63-81 68-78.5 59.5-67v-27z"/><glyph unicode="Ã" horiz-adv-x="1245" d="M0 0zm1055 0l-160 453h-545l-162-453h-188l537 1468h170l538-1468h-190zm-219 618l-148 424q-6 18-14.5 44t-17.5 56-18 62.5-17 63.5q-7-31-16-64t-18-63.5-17.5-56-14.5-42.5l-145-424h426zm-64 963q-40 0-79.5 17.5t-77.5 39-73 39-67 17.5q-45 0-69-26.5t-38-88.5h-104q5 60 21.5 109t43 83.5 63.5 53 83 18.5q42 0 82.5-17.5t78.5-38.5 72.5-38.5 63.5-17.5q45 0 68 26t38 88h105q-5-60-21.5-108.5t-43-83-63.5-53.5-83-19z"/><glyph unicode="Ä" horiz-adv-x="1245" d="M0 0zm1055 0l-160 453h-545l-162-453h-188l537 1468h170l538-1468h-190zm-219 618l-148 424q-6 18-14.5 44t-17.5 56-18 62.5-17 63.5q-7-31-16-64t-18-63.5-17.5-56-14.5-42.5l-145-424h426zm-496 1115q0 54 28 78t68 24q39 0 68-24.5t29-77.5-29-78-68-25q-40 0-68 25t-28 78zm375 0q0 54 28 78t68 24q19 0 36.5-6t30.5-18.5 21-31.5 8-46q0-53-29-78t-67-25q-40 0-68 25t-28 78z"/><glyph unicode="Å" horiz-adv-x="1245" d="M0 0zm1055 0l-160 453h-545l-162-453h-188l537 1468h170l538-1468h-190zm-219 618l-148 424q-6 18-14.5 44t-17.5 56-18 62.5-17 63.5q-7-31-16-64t-18-63.5-17.5-56-14.5-42.5l-145-424h426zm12 965q0-51-17.5-91.5t-48-68.5-72.5-42.5-91-14.5q-50 0-91 14.5t-70.5 42.5-45.5 67.5-16 90.5 16 90.5 45.5 67.5 70.5 42.5 91 14.5q48 0 90-14.5t73-42 48.5-67 17.5-89.5zm-117-2q0 53-31.5 83t-80.5 30q-50 0-81.5-30t-31.5-83 28.5-83 84.5-30q49 0 80.5 30t31.5 83z"/><glyph unicode="Æ" horiz-adv-x="1745" d="M1622 0h-760v453h-475l-203-453h-186l655 1462h969v-164h-573v-452h534v-162h-534v-520h573v-164zm-1163 618h403v680h-108z"/><glyph unicode="Ç" horiz-adv-x="1235" d="M125 0zm668 1319q-107 0-194-40.5t-148.5-116.5-95-185-33.5-246q0-141 29.5-250.5t88.5-184.5 147-114 206-39q89 0 169 17.5t158 40.5v-162q-39-15-78-26.5t-81.5-18.5-91-10.5-107.5-3.5q-164 0-284 54t-198.5 153-116.5 238-38 308q0 166 43.5 304t128 237 209.5 154 287 55q108 0 206-22t177-64l-78-156q-63 32-137 55t-168 23zm123-1606q0-97-70.5-151t-220.5-54q-22 0-44.5 3t-37.5 6v108q15-3 39.5-4.5t40.5-1.5q71 0 111 21.5t40 70.5q0 24-13 41.5t-36 30.5-54.5 22.5-68.5 18.5l90 176h121l-57-115q34-8 63-21t50.5-33.5 34-49.5 12.5-68z"/><glyph unicode="È" horiz-adv-x="1081" d="M199 0zm759 0h-759v1462h759v-164h-573v-452h535v-162h-535v-520h573v-164zm-245 1579h-120q-35 28-76 69.5t-79.5 85.5-70 84.5-47.5 67.5v21h219q16-34 37.5-74.5t44.5-81 47-78.5 45-67v-27z"/><glyph unicode="É" horiz-adv-x="1081" d="M199 0zm759 0h-759v1462h759v-164h-573v-452h535v-162h-535v-520h573v-164zm-502 1606q22 29 45.5 67t47 78.5 44.5 81 37 74.5h219v-21q-16-27-47.5-67.5t-70-84.5-79-85.5-75.5-69.5h-121v27z"/><glyph unicode="Ê" horiz-adv-x="1081" d="M199 0zm759 0h-759v1462h759v-164h-573v-452h535v-162h-535v-520h573v-164zm-51 1579h-121q-51 34-105 82.5t-106 103.5q-54-55-107-103.5t-104-82.5h-121v27q26 29 60 67t67.5 78.5 63 81 45.5 74.5h192q16-34 45.5-74.5t63-81 68-78.5 59.5-67v-27z"/><glyph unicode="Ë" horiz-adv-x="1081" d="M199 0zm759 0h-759v1462h759v-164h-573v-452h535v-162h-535v-520h573v-164zm-662 1733q0 54 28 78t68 24q39 0 68-24.5t29-77.5-29-78-68-25q-40 0-68 25t-28 78zm375 0q0 54 28 78t68 24q19 0 36.5-6t30.5-18.5 21-31.5 8-46q0-53-29-78t-67-25q-40 0-68 25t-28 78z"/><glyph unicode="Ì" horiz-adv-x="694" d="M62 0zm550 0h-530v102l172 41v1176l-172 41v102h530v-102l-172-41v-1176l172-41v-102zm-157 1579h-120q-35 28-76 69.5t-79.5 85.5-70 84.5-47.5 67.5v21h219q16-34 37.5-74.5t44.5-81 47-78.5 45-67v-27z"/><glyph unicode="Í" horiz-adv-x="694" d="M82 0zm530 0h-530v102l172 41v1176l-172 41v102h530v-102l-172-41v-1176l172-41v-102zm-355 1606q22 29 45.5 67t47 78.5 44.5 81 37 74.5h219v-21q-16-27-47.5-67.5t-70-84.5-79-85.5-75.5-69.5h-121v27z"/><glyph unicode="Î" horiz-adv-x="694" d="M17 0zm595 0h-530v102l172 41v1176l-172 41v102h530v-102l-172-41v-1176l172-41v-102zm69 1579h-121q-51 34-105 82.5t-106 103.5q-54-55-107-103.5t-104-82.5h-121v27q26 29 60 67t67.5 78.5 63 81 45.5 74.5h192q16-34 45.5-74.5t63-81 68-78.5 59.5-67v-27z"/><glyph unicode="Ï" horiz-adv-x="694" d="M64 0zm548 0h-530v102l172 41v1176l-172 41v102h530v-102l-172-41v-1176l172-41v-102zm-548 1733q0 54 28 78t68 24q39 0 68-24.5t29-77.5-29-78-68-25q-40 0-68 25t-28 78zm375 0q0 54 28 78t68 24q19 0 36.5-6t30.5-18.5 21-31.5 8-46q0-53-29-78t-67-25q-40 0-68 25t-28 78z"/><glyph unicode="Ð" horiz-adv-x="1401" d="M47 805h152v657h407q153 0 277-46t211-136.5 134.5-224.5 47.5-310q0-185-48-324.5t-139-233-223.5-140.5-300.5-47h-366v643h-152v162zm1032-66q0 146-33 252.5t-96 175.5-155 102.5-209 33.5h-201v-498h336v-162h-336v-483h162q264 0 398 146t134 433z"/><glyph unicode="Ñ" horiz-adv-x="1493" d="M199 0zm1095 0h-215l-719 1210h-8q6-77 10-153 4-65 6.5-136t2.5-128v-793h-172v1462h213l716-1204h7q-3 76-7 150-1 32-2.5 65.5l-3 67-2 64.5-.5 57v800h174v-1462zm-389 1581q-40 0-79.5 17.5t-77.5 39-73 39-67 17.5q-45 0-69-26.5t-38-88.5h-104q5 60 21.5 109t43 83.5 63.5 53 83 18.5q42 0 82.5-17.5t78.5-38.5 72.5-38.5 63.5-17.5q45 0 68 26t38 88h105q-5-60-21.5-108.5t-43-83-63.5-53.5-83-19z"/><glyph unicode="Ò" horiz-adv-x="1520" d="M125 0zm1268 733q0-169-40.5-308t-120.5-238-198.5-153-273.5-54q-163 0-282.5 54t-198 153-116.5 238.5-38 309.5 38 308.5 117 236.5 199 151.5 283 53.5q155 0 272.5-53.5t197.5-152 120.5-237 40.5-309.5zm-1071 0q0-137 26-246.5t79.5-186 136-117 196.5-40.5 196.5 40.5 136 117 78.5 186 25 246.5q0 138-25 247t-78 184.5-135 116-196 40.5-197-40.5-137-116-80-184.5-26-247zm548 846h-120q-35 28-76 69.5t-79.5 85.5-70 84.5-47.5 67.5v21h219q16-34 37.5-74.5t44.5-81 47-78.5 45-67v-27z"/><glyph unicode="Ó" horiz-adv-x="1520" d="M125 0zm1268 733q0-169-40.5-308t-120.5-238-198.5-153-273.5-54q-163 0-282.5 54t-198 153-116.5 238.5-38 309.5 38 308.5 117 236.5 199 151.5 283 53.5q155 0 272.5-53.5t197.5-152 120.5-237 40.5-309.5zm-1071 0q0-137 26-246.5t79.5-186 136-117 196.5-40.5 196.5 40.5 136 117 78.5 186 25 246.5q0 138-25 247t-78 184.5-135 116-196 40.5-197-40.5-137-116-80-184.5-26-247zm329 873q22 29 45.5 67t47 78.5 44.5 81 37 74.5h219v-21q-16-27-47.5-67.5t-70-84.5-79-85.5-75.5-69.5h-121v27z"/><glyph unicode="Ô" horiz-adv-x="1520" d="M125 0zm1268 733q0-169-40.5-308t-120.5-238-198.5-153-273.5-54q-163 0-282.5 54t-198 153-116.5 238.5-38 309.5 38 308.5 117 236.5 199 151.5 283 53.5q155 0 272.5-53.5t197.5-152 120.5-237 40.5-309.5zm-1071 0q0-137 26-246.5t79.5-186 136-117 196.5-40.5 196.5 40.5 136 117 78.5 186 25 246.5q0 138-25 247t-78 184.5-135 116-196 40.5-197-40.5-137-116-80-184.5-26-247zm774 846h-121q-51 34-105 82.5t-106 103.5q-54-55-107-103.5t-104-82.5h-121v27q26 29 60 67t67.5 78.5 63 81 45.5 74.5h192q16-34 45.5-74.5t63-81 68-78.5 59.5-67v-27z"/><glyph unicode="Õ" horiz-adv-x="1520" d="M125 0zm1268 733q0-169-40.5-308t-120.5-238-198.5-153-273.5-54q-163 0-282.5 54t-198 153-116.5 238.5-38 309.5 38 308.5 117 236.5 199 151.5 283 53.5q155 0 272.5-53.5t197.5-152 120.5-237 40.5-309.5zm-1071 0q0-137 26-246.5t79.5-186 136-117 196.5-40.5 196.5 40.5 136 117 78.5 186 25 246.5q0 138-25 247t-78 184.5-135 116-196 40.5-197-40.5-137-116-80-184.5-26-247zm569 848q-40 0-79.5 17.5t-77.5 39-73 39-67 17.5q-45 0-69-26.5t-38-88.5h-104q5 60 21.5 109t43 83.5 63.5 53 83 18.5q42 0 82.5-17.5t78.5-38.5 72.5-38.5 63.5-17.5q45 0 68 26t38 88h105q-5-60-21.5-108.5t-43-83-63.5-53.5-83-19z"/><glyph unicode="Ö" horiz-adv-x="1520" d="M125 0zm1268 733q0-169-40.5-308t-120.5-238-198.5-153-273.5-54q-163 0-282.5 54t-198 153-116.5 238.5-38 309.5 38 308.5 117 236.5 199 151.5 283 53.5q155 0 272.5-53.5t197.5-152 120.5-237 40.5-309.5zm-1071 0q0-137 26-246.5t79.5-186 136-117 196.5-40.5 196.5 40.5 136 117 78.5 186 25 246.5q0 138-25 247t-78 184.5-135 116-196 40.5-197-40.5-137-116-80-184.5-26-247zm155 1000q0 54 28 78t68 24q39 0 68-24.5t29-77.5-29-78-68-25q-40 0-68 25t-28 78zm375 0q0 54 28 78t68 24q19 0 36.5-6t30.5-18.5 21-31.5 8-46q0-53-29-78t-67-25q-40 0-68 25t-28 78z"/><glyph unicode="×" d="M459 723l-318 319 105 105 317-318 322 318 104-103-321-321 319-320-102-102-322 317-317-315-103 103z"/><glyph unicode="Ø" horiz-adv-x="1520" d="M1300 1454l-92-149q91-99 138-244t47-328q0-169-40.5-308t-120.5-238-198.5-153-273.5-54q-189 0-322 71l-78-127-137 78 90 145q-97 100-142.5 249t-45.5 339q0 170 38 308.5t117 236.5 199 151.5 283 53.5q94 0 174.5-21t146.5-59l80 127zm-978-721q0-131 23-235.5t71-182.5l579 945q-48 29-105 45t-128 16q-114 0-197-40.5t-137-116-80-184.5-26-247zm874 0q0 257-88 408l-578-940q47-28 104-43t126-15q114 0 196.5 40.5t136 117 78.5 186 25 246.5z"/><glyph unicode="Ù" horiz-adv-x="1430" d="M184 0zm1061 1464v-948q0-114-33-212t-99.5-170-167-113-236.5-41q-128 0-226 38.5t-164.5 109.5-100.5 170.5-34 221.5v942h187v-952q0-175 86.5-271t261.5-96q89 0 153 27t105 76 61 117 21 149v952h186zm-398 115h-120q-35 28-76 69.5t-79.5 85.5-70 84.5-47.5 67.5v21h219q16-34 37.5-74.5t44.5-81 47-78.5 45-67v-27z"/><glyph unicode="Ú" horiz-adv-x="1430" d="M184 0zm1061 1464v-948q0-114-33-212t-99.5-170-167-113-236.5-41q-128 0-226 38.5t-164.5 109.5-100.5 170.5-34 221.5v942h187v-952q0-175 86.5-271t261.5-96q89 0 153 27t105 76 61 117 21 149v952h186zm-655 142q22 29 45.5 67t47 78.5 44.5 81 37 74.5h219v-21q-16-27-47.5-67.5t-70-84.5-79-85.5-75.5-69.5h-121v27z"/><glyph unicode="Û" horiz-adv-x="1430" d="M184 0zm1061 1464v-948q0-114-33-212t-99.5-170-167-113-236.5-41q-128 0-226 38.5t-164.5 109.5-100.5 170.5-34 221.5v942h187v-952q0-175 86.5-271t261.5-96q89 0 153 27t105 76 61 117 21 149v952h186zm-202 115h-121q-51 34-105 82.5t-106 103.5q-54-55-107-103.5t-104-82.5h-121v27q26 29 60 67t67.5 78.5 63 81 45.5 74.5h192q16-34 45.5-74.5t63-81 68-78.5 59.5-67v-27z"/><glyph unicode="Ü" horiz-adv-x="1430" d="M184 0zm1061 1464v-948q0-114-33-212t-99.5-170-167-113-236.5-41q-128 0-226 38.5t-164.5 109.5-100.5 170.5-34 221.5v942h187v-952q0-175 86.5-271t261.5-96q89 0 153 27t105 76 61 117 21 149v952h186zm-813 269q0 54 28 78t68 24q39 0 68-24.5t29-77.5-29-78-68-25q-40 0-68 25t-28 78zm375 0q0 54 28 78t68 24q19 0 36.5-6t30.5-18.5 21-31.5 8-46q0-53-29-78t-67-25q-40 0-68 25t-28 78z"/><glyph unicode="Ý" horiz-adv-x="1079" d="M0 0zm539 723l340 739h200l-446-893v-569h-187v559l-446 903h203zm-97 883q22 29 45.5 67t47 78.5 44.5 81 37 74.5h219v-21q-16-27-47.5-67.5t-70-84.5-79-85.5-75.5-69.5h-121v27z"/><glyph unicode="Þ" horiz-adv-x="1180" d="M1075 782q0-91-27.5-175t-90.5-148.5-166.5-103-255.5-38.5h-150v-317h-186v1462h186v-252h176q134 0 231-28.5t160-83 93-134.5 30-182zm-690-307h129q93 0 162.5 16t115 51.5 68.5 92 23 137.5q0 143-82 211t-256 68h-160v-576z"/><glyph unicode="ß" horiz-adv-x="1233" d="M1010 1260q0-57-21.5-101.5t-53-81-69-66.5-69-57.5-53-54.5-21.5-57q0-21 7-37.5t26.5-36 54.5-44 92-62.5q56-37 100-73t74.5-77 47-89 16.5-110q0-87-28-150t-78.5-103.5-121-60-155.5-19.5q-97 0-166.5 17.5t-122.5 51.5v166q26-16 58.5-31.5t68.5-27.5 74-19.5 75-7.5q56 0 96.5 12.5t66.5 35 38 54.5 12 72q0 36-8.5 65.5t-30 57.5-57.5 57-92 64q-63 40-105.5 74t-69 67.5-37.5 68.5-11 77q0 54 20.5 93.5t51.5 71 67 58.5 67 56 51.5 62.5 20.5 77.5q0 42-16.5 73t-46.5 51.5-71.5 30-92.5 9.5q-49 0-93-9.5t-77-33.5-52.5-65.5-19.5-106.5v-1202h-182v1200q0 104 31.5 174.5t88 113 134.5 61 170 18.5 168-19 130-57 84-96 30-135z"/><glyph unicode="à" horiz-adv-x="1087" d="M94 0zm699 0l-37 152h-8q-33-45-66-77.5t-72-53.5-87-31-111-10q-69 0-127 19.5t-100.5 60-66.5 102-24 145.5q0 164 115.5 252t351.5 96l184 7v69q0 67-14.5 112t-42 72.5-68 39.5-92.5 12q-83 0-154.5-24t-137.5-58l-64 137q74 40 165 68t191 28q102 0 176.5-20.5t123-65 72.5-113.5 24-167v-752h-131zm-334 127q61 0 113 19t90 57.5 59.5 97 21.5 137.5v99l-143-7q-90-4-151-20t-97.5-44.5-52.5-69-16-91.5q0-92 48.5-135t127.5-43zm219 1114h-120q-35 28-76 69.5t-79.5 85.5-70 84.5-47.5 67.5v21h219q16-34 37.5-74.5t44.5-81 47-78.5 45-67v-27z"/><glyph unicode="á" horiz-adv-x="1087" d="M94 0zm699 0l-37 152h-8q-33-45-66-77.5t-72-53.5-87-31-111-10q-69 0-127 19.5t-100.5 60-66.5 102-24 145.5q0 164 115.5 252t351.5 96l184 7v69q0 67-14.5 112t-42 72.5-68 39.5-92.5 12q-83 0-154.5-24t-137.5-58l-64 137q74 40 165 68t191 28q102 0 176.5-20.5t123-65 72.5-113.5 24-167v-752h-131zm-334 127q61 0 113 19t90 57.5 59.5 97 21.5 137.5v99l-143-7q-90-4-151-20t-97.5-44.5-52.5-69-16-91.5q0-92 48.5-135t127.5-43zm-13 1141q22 29 45.5 67t47 78.5 44.5 81 37 74.5h219v-21q-16-27-47.5-67.5t-70-84.5-79-85.5-75.5-69.5h-121v27z"/><glyph unicode="â" horiz-adv-x="1087" d="M94 0zm699 0l-37 152h-8q-33-45-66-77.5t-72-53.5-87-31-111-10q-69 0-127 19.5t-100.5 60-66.5 102-24 145.5q0 164 115.5 252t351.5 96l184 7v69q0 67-14.5 112t-42 72.5-68 39.5-92.5 12q-83 0-154.5-24t-137.5-58l-64 137q74 40 165 68t191 28q102 0 176.5-20.5t123-65 72.5-113.5 24-167v-752h-131zm-334 127q61 0 113 19t90 57.5 59.5 97 21.5 137.5v99l-143-7q-90-4-151-20t-97.5-44.5-52.5-69-16-91.5q0-92 48.5-135t127.5-43zm433 1114h-121q-51 34-105 82.5t-106 103.5q-54-55-107-103.5t-104-82.5h-121v27q26 29 60 67t67.5 78.5 63 81 45.5 74.5h192q16-34 45.5-74.5t63-81 68-78.5 59.5-67v-27z"/><glyph unicode="ã" horiz-adv-x="1087" d="M94 0zm699 0l-37 152h-8q-33-45-66-77.5t-72-53.5-87-31-111-10q-69 0-127 19.5t-100.5 60-66.5 102-24 145.5q0 164 115.5 252t351.5 96l184 7v69q0 67-14.5 112t-42 72.5-68 39.5-92.5 12q-83 0-154.5-24t-137.5-58l-64 137q74 40 165 68t191 28q102 0 176.5-20.5t123-65 72.5-113.5 24-167v-752h-131zm-334 127q61 0 113 19t90 57.5 59.5 97 21.5 137.5v99l-143-7q-90-4-151-20t-97.5-44.5-52.5-69-16-91.5q0-92 48.5-135t127.5-43zm240 1116q-40 0-79.5 17.5t-77.5 39-73 39-67 17.5q-45 0-69-26.5t-38-88.5h-104q5 60 21.5 109t43 83.5 63.5 53 83 18.5q42 0 82.5-17.5t78.5-38.5 72.5-38.5 63.5-17.5q45 0 68 26t38 88h105q-5-60-21.5-108.5t-43-83-63.5-53.5-83-19z"/><glyph unicode="ä" horiz-adv-x="1087" d="M94 0zm699 0l-37 152h-8q-33-45-66-77.5t-72-53.5-87-31-111-10q-69 0-127 19.5t-100.5 60-66.5 102-24 145.5q0 164 115.5 252t351.5 96l184 7v69q0 67-14.5 112t-42 72.5-68 39.5-92.5 12q-83 0-154.5-24t-137.5-58l-64 137q74 40 165 68t191 28q102 0 176.5-20.5t123-65 72.5-113.5 24-167v-752h-131zm-334 127q61 0 113 19t90 57.5 59.5 97 21.5 137.5v99l-143-7q-90-4-151-20t-97.5-44.5-52.5-69-16-91.5q0-92 48.5-135t127.5-43zm-186 1268q0 54 28 78t68 24q39 0 68-24.5t29-77.5-29-78-68-25q-40 0-68 25t-28 78zm375 0q0 54 28 78t68 24q19 0 36.5-6t30.5-18.5 21-31.5 8-46q0-53-29-78t-67-25q-40 0-68 25t-28 78z"/><glyph unicode="å" horiz-adv-x="1087" d="M94 0zm699 0l-37 152h-8q-33-45-66-77.5t-72-53.5-87-31-111-10q-69 0-127 19.5t-100.5 60-66.5 102-24 145.5q0 164 115.5 252t351.5 96l184 7v69q0 67-14.5 112t-42 72.5-68 39.5-92.5 12q-83 0-154.5-24t-137.5-58l-64 137q74 40 165 68t191 28q102 0 176.5-20.5t123-65 72.5-113.5 24-167v-752h-131zm-334 127q61 0 113 19t90 57.5 59.5 97 21.5 137.5v99l-143-7q-90-4-151-20t-97.5-44.5-52.5-69-16-91.5q0-92 48.5-135t127.5-43zm324 1331q0-51-17.5-91.5t-48-68.5-72.5-42.5-91-14.5q-50 0-91 14.5t-70.5 42.5-45.5 67.5-16 90.5 16 90.5 45.5 67.5 70.5 42.5 91 14.5q48 0 90-14.5t73-42 48.5-67 17.5-89.5zm-117-2q0 53-31.5 83t-80.5 30q-50 0-81.5-30t-31.5-83 28.5-83 84.5-30q49 0 80.5 30t31.5 83z"/><glyph unicode="æ" horiz-adv-x="1706" d="M94 307q0 164 115.5 252t351.5 96l184 7v69q0 67-14.5 112t-42 72.5-68 39.5-92.5 12q-83 0-154.5-24t-137.5-58l-64 137q74 40 165 68t191 28q131 0 214-42.5t126-135.5q51 85 134 131.5t186 46.5q97 0 174-35.5t131-100 82.5-155 28.5-200.5v-113h-672q5-193 78.5-284t220.5-91q49 0 91.5 5t81.5 14.5 76 24 74 32.5v-162q-39-19-76.5-33t-77-23-82-13-91.5-4q-138 0-239 57t-163 172q-34-54-72-96.5t-85.5-72-105.5-45-132-15.5q-71 0-132.5 19.5t-106.5 60-71 102-26 145.5zm189-2q0-92 48.5-135t127.5-43q61 0 113 19t90 57.5 59.5 97 21.5 137.5v99l-143-7q-90-4-151-20t-97.5-44.5-52.5-69-16-91.5zm901 662q-110 0-173.5-78t-74.5-227h471q0 68-13 124.5t-40.5 96.5-69.5 62-100 22z"/><glyph unicode="ç" horiz-adv-x="948" d="M113 0zm481-20q-101 0-189 31.5t-153 100-102 175-37 256.5q0 157 38 266.5t104.5 178 155.5 99.5 191 31q78 0 152.5-17t124.5-42l-54-154q-23 10-51 19.5t-58 17-59 12-55 4.5q-157 0-229-100.5t-72-312.5q0-211 72.5-308.5t220.5-97.5q81 0 146.5 18.5t119.5 43.5v-162q-54-29-115.5-44t-150.5-15zm136-267q0-97-70.5-151t-220.5-54q-22 0-44.5 3t-37.5 6v108q15-3 39.5-4.5t40.5-1.5q71 0 111 21.5t40 70.5q0 24-13 41.5t-36 30.5-54.5 22.5-68.5 18.5l90 176h121l-57-115q34-8 63-21t50.5-33.5 34-49.5 12.5-68z"/><glyph unicode="è" horiz-adv-x="1096" d="M113 0zm495-20q-110 0-201 37t-156.5 108-101.5 176-36 240q0 136 33 243t93 181.5 143.5 113.5 184.5 39q99 0 178-35.5t134-100 84.5-155 29.5-200.5v-113h-692q5-193 81.5-284t227.5-91q51 0 94.5 5t84 14.5 78.5 24 77 32.5v-162q-40-19-78.5-33t-79-23-84-13-94.5-4zm-45 987q-114 0-180.5-78t-77.5-227h492q0 68-13.5 124.5t-42 96.5-72.5 62-106 22zm115 274h-120q-35 28-76 69.5t-79.5 85.5-70 84.5-47.5 67.5v21h219q16-34 37.5-74.5t44.5-81 47-78.5 45-67v-27z"/><glyph unicode="é" horiz-adv-x="1096" d="M113 0zm495-20q-110 0-201 37t-156.5 108-101.5 176-36 240q0 136 33 243t93 181.5 143.5 113.5 184.5 39q99 0 178-35.5t134-100 84.5-155 29.5-200.5v-113h-692q5-193 81.5-284t227.5-91q51 0 94.5 5t84 14.5 78.5 24 77 32.5v-162q-40-19-78.5-33t-79-23-84-13-94.5-4zm-45 987q-114 0-180.5-78t-77.5-227h492q0 68-13.5 124.5t-42 96.5-72.5 62-106 22zm-88 301q22 29 45.5 67t47 78.5 44.5 81 37 74.5h219v-21q-16-27-47.5-67.5t-70-84.5-79-85.5-75.5-69.5h-121v27z"/><glyph unicode="ê" horiz-adv-x="1096" d="M113 0zm495-20q-110 0-201 37t-156.5 108-101.5 176-36 240q0 136 33 243t93 181.5 143.5 113.5 184.5 39q99 0 178-35.5t134-100 84.5-155 29.5-200.5v-113h-692q5-193 81.5-284t227.5-91q51 0 94.5 5t84 14.5 78.5 24 77 32.5v-162q-40-19-78.5-33t-79-23-84-13-94.5-4zm-45 987q-114 0-180.5-78t-77.5-227h492q0 68-13.5 124.5t-42 96.5-72.5 62-106 22zm325 274h-121q-51 34-105 82.5t-106 103.5q-54-55-107-103.5t-104-82.5h-121v27q26 29 60 67t67.5 78.5 63 81 45.5 74.5h192q16-34 45.5-74.5t63-81 68-78.5 59.5-67v-27z"/><glyph unicode="ë" horiz-adv-x="1096" d="M113 0zm495-20q-110 0-201 37t-156.5 108-101.5 176-36 240q0 136 33 243t93 181.5 143.5 113.5 184.5 39q99 0 178-35.5t134-100 84.5-155 29.5-200.5v-113h-692q5-193 81.5-284t227.5-91q51 0 94.5 5t84 14.5 78.5 24 77 32.5v-162q-40-19-78.5-33t-79-23-84-13-94.5-4zm-45 987q-114 0-180.5-78t-77.5-227h492q0 68-13.5 124.5t-42 96.5-72.5 62-106 22zm-294 428q0 54 28 78t68 24q39 0 68-24.5t29-77.5-29-78-68-25q-40 0-68 25t-28 78zm375 0q0 54 28 78t68 24q19 0 36.5-6t30.5-18.5 21-31.5 8-46q0-53-29-78t-67-25q-40 0-68 25t-28 78z"/><glyph unicode="ì" horiz-adv-x="530" d="M0 0zm356 0h-182v1098h182v-1098zm3 1241h-120q-35 28-76 69.5t-79.5 85.5-70 84.5-47.5 67.5v21h219q16-34 37.5-74.5t44.5-81 47-78.5 45-67v-27z"/><glyph unicode="í" horiz-adv-x="530" d="M174 0zm182 0h-182v1098h182v-1098zm-171 1268q22 29 45.5 67t47 78.5 44.5 81 37 74.5h219v-21q-16-27-47.5-67.5t-70-84.5-79-85.5-75.5-69.5h-121v27z"/><glyph unicode="î" horiz-adv-x="530" d="M0 0zm356 0h-182v1098h182v-1098zm241 1241h-121q-51 34-105 82.5t-106 103.5q-54-55-107-103.5t-104-82.5h-121v27q26 29 60 67t67.5 78.5 63 81 45.5 74.5h192q16-34 45.5-74.5t63-81 68-78.5 59.5-67v-27z"/><glyph unicode="ï" horiz-adv-x="530" d="M0 0zm356 0h-182v1098h182v-1098zm-374 1395q0 54 28 78t68 24q39 0 68-24.5t29-77.5-29-78-68-25q-40 0-68 25t-28 78zm375 0q0 54 28 78t68 24q19 0 36.5-6t30.5-18.5 21-31.5 8-46q0-53-29-78t-67-25q-40 0-68 25t-28 78z"/><glyph unicode="ð" horiz-adv-x="1182" d="M1069 573q0-142-33.5-252t-96-186-151.5-115.5-200-39.5q-104 0-191.5 33t-151 96.5-99 156-35.5 211.5 31.5 211 90.5 155 143 95.5 189 32.5q102 0 179-29.5t120-89.5l8 4q-31 118-91 214t-150 177l-256-153-74 114 217 131q-40 28-82.5 55.5t-89.5 53.5l70 123q65-32 126-68t120-80l227 138 74-113-195-117q67-65 122.5-143t95-171.5 61.5-204 22-239.5zm-188-47q0 56-17 109.5t-52 94.5-90 66-130 25q-77 0-131.5-23t-89.5-67-51.5-109.5-16.5-150.5q0-76 16.5-138.5t52-107.5 90-69.5 130.5-24.5q154 0 221.5 99.5t67.5 295.5z"/><glyph unicode="ñ" horiz-adv-x="1206" d="M174 0zm686 0v707q0 130-52.5 195t-164.5 65q-81 0-136-26t-88.5-77-48-125-14.5-170v-569h-182v1098h148l26-148h10q25 43 59.5 74.5t75.5 52.5 87 31 94 10q183 0 275.5-95.5t92.5-305.5v-717h-182zm-101 1243q-40 0-79.5 17.5t-77.5 39-73 39-67 17.5q-45 0-69-26.5t-38-88.5h-104q5 60 21.5 109t43 83.5 63.5 53 83 18.5q42 0 82.5-17.5t78.5-38.5 72.5-38.5 63.5-17.5q45 0 68 26t38 88h105q-5-60-21.5-108.5t-43-83-63.5-53.5-83-19z"/><glyph unicode="ò" horiz-adv-x="1182" d="M113 0zm956 551q0-137-33.5-243.5t-96-179-151.5-110.5-200-38q-103 0-190 38t-150.5 110.5-99 179-35.5 243.5q0 136 33.5 241.5t95.5 178 151.5 110 200.5 37.5q103 0 190-37.5t150.5-110 99-178 35.5-241.5zm-768 0q0-209 68.5-314.5t222.5-105.5 221.5 105.5 67.5 314.5-68.5 312.5-222.5 103.5-221.5-103.5-67.5-312.5zm445 690h-120q-35 28-76 69.5t-79.5 85.5-70 84.5-47.5 67.5v21h219q16-34 37.5-74.5t44.5-81 47-78.5 45-67v-27z"/><glyph unicode="ó" horiz-adv-x="1182" d="M113 0zm956 551q0-137-33.5-243.5t-96-179-151.5-110.5-200-38q-103 0-190 38t-150.5 110.5-99 179-35.5 243.5q0 136 33.5 241.5t95.5 178 151.5 110 200.5 37.5q103 0 190-37.5t150.5-110 99-178 35.5-241.5zm-768 0q0-209 68.5-314.5t222.5-105.5 221.5 105.5 67.5 314.5-68.5 312.5-222.5 103.5-221.5-103.5-67.5-312.5zm172 717q22 29 45.5 67t47 78.5 44.5 81 37 74.5h219v-21q-16-27-47.5-67.5t-70-84.5-79-85.5-75.5-69.5h-121v27z"/><glyph unicode="ô" horiz-adv-x="1182" d="M113 0zm956 551q0-137-33.5-243.5t-96-179-151.5-110.5-200-38q-103 0-190 38t-150.5 110.5-99 179-35.5 243.5q0 136 33.5 241.5t95.5 178 151.5 110 200.5 37.5q103 0 190-37.5t150.5-110 99-178 35.5-241.5zm-768 0q0-209 68.5-314.5t222.5-105.5 221.5 105.5 67.5 314.5-68.5 312.5-222.5 103.5-221.5-103.5-67.5-312.5zm616 690h-121q-51 34-105 82.5t-106 103.5q-54-55-107-103.5t-104-82.5h-121v27q26 29 60 67t67.5 78.5 63 81 45.5 74.5h192q16-34 45.5-74.5t63-81 68-78.5 59.5-67v-27z"/><glyph unicode="õ" horiz-adv-x="1182" d="M113 0zm956 551q0-137-33.5-243.5t-96-179-151.5-110.5-200-38q-103 0-190 38t-150.5 110.5-99 179-35.5 243.5q0 136 33.5 241.5t95.5 178 151.5 110 200.5 37.5q103 0 190-37.5t150.5-110 99-178 35.5-241.5zm-768 0q0-209 68.5-314.5t222.5-105.5 221.5 105.5 67.5 314.5-68.5 312.5-222.5 103.5-221.5-103.5-67.5-312.5zm435 692q-40 0-79.5 17.5t-77.5 39-73 39-67 17.5q-45 0-69-26.5t-38-88.5h-104q5 60 21.5 109t43 83.5 63.5 53 83 18.5q42 0 82.5-17.5t78.5-38.5 72.5-38.5 63.5-17.5q45 0 68 26t38 88h105q-5-60-21.5-108.5t-43-83-63.5-53.5-83-19z"/><glyph unicode="ö" horiz-adv-x="1182" d="M113 0zm956 551q0-137-33.5-243.5t-96-179-151.5-110.5-200-38q-103 0-190 38t-150.5 110.5-99 179-35.5 243.5q0 136 33.5 241.5t95.5 178 151.5 110 200.5 37.5q103 0 190-37.5t150.5-110 99-178 35.5-241.5zm-768 0q0-209 68.5-314.5t222.5-105.5 221.5 105.5 67.5 314.5-68.5 312.5-222.5 103.5-221.5-103.5-67.5-312.5zm-1 844q0 54 28 78t68 24q39 0 68-24.5t29-77.5-29-78-68-25q-40 0-68 25t-28 78zm375 0q0 54 28 78t68 24q19 0 36.5-6t30.5-18.5 21-31.5 8-46q0-53-29-78t-67-25q-40 0-68 25t-28 78z"/><glyph unicode="÷" d="M102 647v150h924v-150h-924zm347-274q0 35 9 58.5t24.5 38.5 36 21.5 44.5 6.5q23 0 44-6.5t37-21.5 25-38.5 9-58.5q0-33-9-56.5t-25-39-37-22.5-44-7q-24 0-44.5 7t-36 22.5-24.5 39-9 56.5zm0 698q0 35 9 58.5t24.5 38.5 36 21.5 44.5 6.5q23 0 44-6.5t37-21.5 25-38.5 9-58.5q0-33-9-56.5t-25-39-37-22.5-44-7q-24 0-44.5 7t-36 22.5-24.5 39-9 56.5z"/><glyph unicode="ø" horiz-adv-x="1182" d="M1071 551q0-137-33.5-243.5t-96-179-151.5-110.5-200-38q-125 0-223 53l-68-109-131 74 80 131q-63 72-98 178.5t-35 243.5q0 136 33.5 241.5t95.5 178 151.5 110 200.5 37.5q63 0 119.5-14.5t105.5-42.5l68 108 131-73-80-129q62-73 96.5-177.5t34.5-238.5zm-768 0q0-84 9.5-149.5t31.5-116.5l397 647q-29 17-66.5 26t-82.5 9q-154 0-221.5-103.5t-67.5-312.5zm580 0q0 159-39 258l-398-645q31-17 67-25t81-8q154 0 221.5 105.5t67.5 314.5z"/><glyph unicode="ù" horiz-adv-x="1206" d="M164 0zm721 0l-27 147h-10q-25-43-59.5-74.5t-75.5-52-87-30.5-94-10q-91 0-160 23t-115 72-69.5 125-23.5 181v717h182v-707q0-130 53-195t164-65q81 0 136 26t88.5 76.5 48 124.5 14.5 170v570h182v-1098h-147zm-192 1241h-120q-35 28-76 69.5t-79.5 85.5-70 84.5-47.5 67.5v21h219q16-34 37.5-74.5t44.5-81 47-78.5 45-67v-27z"/><glyph unicode="ú" horiz-adv-x="1206" d="M164 0zm721 0l-27 147h-10q-25-43-59.5-74.5t-75.5-52-87-30.5-94-10q-91 0-160 23t-115 72-69.5 125-23.5 181v717h182v-707q0-130 53-195t164-65q81 0 136 26t88.5 76.5 48 124.5 14.5 170v570h182v-1098h-147zm-396 1268q22 29 45.5 67t47 78.5 44.5 81 37 74.5h219v-21q-16-27-47.5-67.5t-70-84.5-79-85.5-75.5-69.5h-121v27z"/><glyph unicode="û" horiz-adv-x="1206" d="M164 0zm721 0l-27 147h-10q-25-43-59.5-74.5t-75.5-52-87-30.5-94-10q-91 0-160 23t-115 72-69.5 125-23.5 181v717h182v-707q0-130 53-195t164-65q81 0 136 26t88.5 76.5 48 124.5 14.5 170v570h182v-1098h-147zm45 1241h-121q-51 34-105 82.5t-106 103.5q-54-55-107-103.5t-104-82.5h-121v27q26 29 60 67t67.5 78.5 63 81 45.5 74.5h192q16-34 45.5-74.5t63-81 68-78.5 59.5-67v-27z"/><glyph unicode="ü" horiz-adv-x="1206" d="M164 0zm721 0l-27 147h-10q-25-43-59.5-74.5t-75.5-52-87-30.5-94-10q-91 0-160 23t-115 72-69.5 125-23.5 181v717h182v-707q0-130 53-195t164-65q81 0 136 26t88.5 76.5 48 124.5 14.5 170v570h182v-1098h-147zm-576 1395q0 54 28 78t68 24q39 0 68-24.5t29-77.5-29-78-68-25q-40 0-68 25t-28 78zm375 0q0 54 28 78t68 24q19 0 36.5-6t30.5-18.5 21-31.5 8-46q0-53-29-78t-67-25q-40 0-68 25t-28 78z"/><glyph unicode="ý" horiz-adv-x="1001" d="M10 0zm0 1098h189l215-613q14-40 28.5-84t27-88 21.5-85 13-76h6q5 25 16 68t24.5 91.5 28 95.5 25.5 80l199 611h188l-434-1241q-28-81-60.5-145.5t-75.5-109.5-101-69.5-138-24.5q-52 0-90 5.5t-65 11.5v145q21-5 53-8.5t67-3.5q48 0 83 11.5t61 33.5 44.5 54 33.5 73l57 160zm397 170q22 29 45.5 67t47 78.5 44.5 81 37 74.5h219v-21q-16-27-47.5-67.5t-70-84.5-79-85.5-75.5-69.5h-121v27z"/><glyph unicode="þ" horiz-adv-x="1200" d="M356 950q23 35 52 65.5t67.5 53 86.5 36 108 13.5q94 0 171-36t131.5-107.5 84.5-177.5 30-246q0-141-30-247.5t-84.5-178.5-131.5-108.5-171-36.5q-59 0-107 13t-86.5 34.5-68 50.5-52.5 61h-12q3-34 6-65 2-26 4-53.5t2-43.5v-469h-182v2048h182v-458l-8-148h8zm279 17q-76 0-128.5-23t-85-70-48-117-17.5-165v-41q0-101 13.5-179.5t46-132 86.5-81 135-27.5q135 0 198.5 109t63.5 313q0 208-63.5 311t-200.5 103z"/><glyph unicode="ÿ" horiz-adv-x="1001" d="M10 0zm0 1098h189l215-613q14-40 28.5-84t27-88 21.5-85 13-76h6q5 25 16 68t24.5 91.5 28 95.5 25.5 80l199 611h188l-434-1241q-28-81-60.5-145.5t-75.5-109.5-101-69.5-138-24.5q-52 0-90 5.5t-65 11.5v145q21-5 53-8.5t67-3.5q48 0 83 11.5t61 33.5 44.5 54 33.5 73l57 160zm218 297q0 54 28 78t68 24q39 0 68-24.5t29-77.5-29-78-68-25q-40 0-68 25t-28 78zm375 0q0 54 28 78t68 24q19 0 36.5-6t30.5-18.5 21-31.5 8-46q0-53-29-78t-67-25q-40 0-68 25t-28 78z"/><glyph unicode="ı" horiz-adv-x="530" d="M356 0h-182v1098h182v-1098z"/><glyph unicode="Œ" horiz-adv-x="1823" d="M1700 0h-758q-43-9-88.5-14.5t-93.5-5.5q-163 0-282.5 54t-198 153-116.5 238.5-38 309.5 38 308.5 117 236.5 199 151.5 283 53.5q98 0 182-23h756v-164h-574v-452h535v-162h-535v-520h574v-164zm-938 1321q-114 0-197-40.5t-137-116-80-184.5-26-247q0-137 26-246.5t79.5-186 136-117 196.5-40.5q52 0 97 9t83 24v1112q-38 16-82.5 24.5t-95.5 8.5z"/><glyph unicode="œ" horiz-adv-x="1864" d="M1376-20q-130 0-232 56t-167 165q-63-109-162-165t-227-56q-103 0-190 38t-150.5 110.5-99 179-35.5 243.5q0 136 33.5 241.5t95.5 178 151.5 110 200.5 37.5q121 0 218.5-55.5t160.5-161.5q60 105 152.5 161t209.5 56q99 0 178-35.5t134-100 84.5-155 29.5-200.5v-113h-692q5-193 81.5-284t227.5-91q51 0 94.5 5t84 14.5 78.5 24 77 32.5v-162q-40-19-78.5-33t-79-23-84-13-94.5-4zm-1075 571q0-209 68.5-314.5t222.5-105.5q150 0 219.5 100.5t69.5 309.5q0 220-70 323t-221 103q-154 0-221.5-103.5t-67.5-312.5zm1264 111q0 68-13.5 124.5t-42 96.5-72.5 62-106 22q-114 0-180.5-78t-77.5-227h492z"/><glyph unicode="Ÿ" horiz-adv-x="1079" d="M0 0zm539 723l340 739h200l-446-893v-569h-187v559l-446 903h203zm-282 1010q0 54 28 78t68 24q39 0 68-24.5t29-77.5-29-78-68-25q-40 0-68 25t-28 78zm375 0q0 54 28 78t68 24q19 0 36.5-6t30.5-18.5 21-31.5 8-46q0-53-29-78t-67-25q-40 0-68 25t-28 78z"/><glyph unicode="ˆ" horiz-adv-x="1182" d="M922 1241h-121q-51 34-105 82.5t-106 103.5q-54-55-107-103.5t-104-82.5h-121v27q26 29 60 67t67.5 78.5 63 81 45.5 74.5h192q16-34 45.5-74.5t63-81 68-78.5 59.5-67v-27z"/><glyph unicode="˚" horiz-adv-x="1182" d="M817 1458q0-51-17.5-91.5t-48-68.5-72.5-42.5-91-14.5q-50 0-91 14.5t-70.5 42.5-45.5 67.5-16 90.5 16 90.5 45.5 67.5 70.5 42.5 91 14.5q48 0 90-14.5t73-42 48.5-67 17.5-89.5zm-117-2q0 53-31.5 83t-80.5 30q-50 0-81.5-30t-31.5-83 28.5-83 84.5-30q49 0 80.5 30t31.5 83z"/><glyph unicode="˜" horiz-adv-x="1182" d="M766 1243q-40 0-79.5 17.5t-77.5 39-73 39-67 17.5q-45 0-69-26.5t-38-88.5h-104q5 60 21.5 109t43 83.5 63.5 53 83 18.5q42 0 82.5-17.5t78.5-38.5 72.5-38.5 63.5-17.5q45 0 68 26t38 88h105q-5-60-21.5-108.5t-43-83-63.5-53.5-83-19z"/><glyph horiz-adv-x="953"/><glyph horiz-adv-x="1907"/><glyph horiz-adv-x="953"/><glyph horiz-adv-x="1907"/><glyph horiz-adv-x="635"/><glyph horiz-adv-x="476"/><glyph horiz-adv-x="317"/><glyph horiz-adv-x="317"/><glyph horiz-adv-x="238"/><glyph horiz-adv-x="381"/><glyph horiz-adv-x="105"/><glyph unicode="‐" horiz-adv-x="659" d="M82 465v168h496v-168h-496z"/><glyph unicode="‑" horiz-adv-x="659" d="M82 465v168h496v-168h-496z"/><glyph unicode="‒" horiz-adv-x="659" d="M82 465v168h496v-168h-496z"/><glyph unicode="–" horiz-adv-x="1024" d="M82 465v168h860v-168h-860z"/><glyph unicode="—" horiz-adv-x="2048" d="M82 465v168h1884v-168h-1884z"/><glyph unicode="‘" horiz-adv-x="358" d="M37 961l-14 22q14 54 33.5 115t42.5 123 49 123.5 51 117.5h137q-15-61-29.5-127t-27.5-131.5-24-127.5-19-115h-199z"/><glyph unicode="’" horiz-adv-x="358" d="M322 1462l14-22q-14-55-33.5-115.5t-43-123-49-123.5-50.5-117h-137q14 60 28.5 126t28 132 24.5 128 19 115h199z"/><glyph unicode="‚" horiz-adv-x="512" d="M362 238l15-23q-14-54-33.5-115t-43-123-49-123.5-50.5-117.5h-138q15 61 29.5 127t28 131.5 24.5 128 19 115.5h198z"/><glyph unicode="“" horiz-adv-x="743" d="M422 961l-14 22q14 54 33.5 115t42.5 123 49 123.5 51 117.5h137q-15-61-29.5-127t-27.5-131.5-24-127.5-19-115h-199zm-385 0l-14 22q14 54 33.5 115t42.5 123 49 123.5 51 117.5h137q-15-61-29.5-127t-27.5-131.5-24-127.5-19-115h-199z"/><glyph unicode="”" horiz-adv-x="743" d="M322 1462l14-22q-14-55-33.5-115.5t-43-123-49-123.5-50.5-117h-137q14 60 28.5 126t28 132 24.5 128 19 115h199zm385 0l14-22q-14-55-33.5-115.5t-43-123-49-123.5-50.5-117h-137q14 60 28.5 126t28 132 24.5 128 19 115h199z"/><glyph unicode="„" horiz-adv-x="897" d="M362 238l15-23q-14-54-33.5-115t-43-123-49-123.5-50.5-117.5h-138q15 61 29.5 127t28 131.5 24.5 128 19 115.5h198zm386 0l14-23q-14-54-33.5-115t-43-123-49-123.5-50.5-117.5h-137q14 61 28.5 127t28 131.5 24.5 128 19 115.5h199z"/><glyph unicode="•" horiz-adv-x="770" d="M150 748q0 71 18 121t49.5 81.5 74.5 45.5 93 14q49 0 92-14t75-45.5 50.5-81.5 18.5-121q0-70-18.5-120t-50.5-81.5-75-46.5-92-15q-50 0-93 15t-74.5 46.5-49.5 81.5-18 120z"/><glyph unicode="…" horiz-adv-x="1647" d="M147 111q0 38 10 64.5t27 43 40 24 50 7.5q26 0 49.5-7.5t40.5-24 27-43 10-64.5q0-37-10-63.5t-27-43.5-40.5-25-49.5-8q-27 0-50 8t-40 25-27 43.5-10 63.5zm549 0q0 38 10 64.5t27 43 40 24 50 7.5q26 0 49.5-7.5t40.5-24 27-43 10-64.5q0-37-10-63.5t-27-43.5-40.5-25-49.5-8q-27 0-50 8t-40 25-27 43.5-10 63.5zm549 0q0 38 9.5 64.5t27 43 40.5 24 50 7.5q26 0 49.5-7.5t40.5-24 27-43 10-64.5q0-37-10-63.5t-27-43.5-40.5-25-49.5-8q-54 0-90.5 33t-36.5 107z"/><glyph horiz-adv-x="381"/><glyph unicode="‹" horiz-adv-x="590" d="M82 553l309 414 117-78-238-348 238-348-117-78-309 411v27z"/><glyph unicode="›" horiz-adv-x="590" d="M508 526l-309-411-117 78 237 348-237 348 117 78 309-414v-27z"/><glyph unicode="⁄" horiz-adv-x="266" d="M616 1462l-811-1462h-157l811 1462h157z"/><glyph horiz-adv-x="476"/><glyph unicode="€" d="M776 1319q-69 0-128-26t-106-75.5-80.5-121-51.5-162.5h432v-137h-447q0-15-1-29-1-12-1-25v-61.5l2-42.5h385v-137h-366q34-175 126.5-267t241.5-92q75 0 142.5 16t126.5 42v-162q-59-28-125.5-43.5t-157.5-15.5q-115 0-206 36.5t-158.5 104-111.5 164-65 217.5h-164v137h148q-2 23-2 38v44q0 22 1 45t1 31h-148v137h160q18 125 62 226t111.5 173 159.5 111 206 39q97 0 177-21.5t159-70.5l-80-146q-51 31-110.5 52.5t-131.5 21.5z"/><glyph unicode="™" horiz-adv-x="1534" d="M360 741h-127v613h-196v108h522v-108h-199v-613zm576 0l-186 549h-7q1-16 2-33t1.5-32 1-27 .5-18v-439h-123v721h186l180-551 191 551h178v-721h-127v428q0 9 .5 24t1 32.5l1 35 1.5 29.5h-6l-195-549h-100z"/><glyph unicode="" horiz-adv-x="1100" d="M0 1100h1100v-1100h-1100v1100z"/><glyph unicode="ﬁ" horiz-adv-x="1204" d="M29 0zm622 961h-245v-961h-183v961h-194v75l194 68v96q0 107 22.5 177.5t65 112.5 104.5 59.5 140 17.5q59 0 108.5-11.5t88.5-25.5l-47-141q-31 11-67.5 19.5t-76.5 8.5-69-9.5-48-33.5-28.5-65.5-9.5-106.5v-104h245v-137zm379-961h-182v1098h182v-1098zm-196 1395q0 60 30.5 87t75.5 27q22 0 41.5-6.5t34-20.5 23-35.5 8.5-51.5q0-58-31.5-86.5t-75.5-28.5q-45 0-75.5 28t-30.5 87z"/><glyph unicode="ﬂ" horiz-adv-x="1204" d="M29 0zm622 961h-245v-961h-183v961h-194v75l194 68v96q0 107 22.5 177.5t65 112.5 104.5 59.5 140 17.5q59 0 108.5-11.5t88.5-25.5l-47-141q-31 11-67.5 19.5t-76.5 8.5-69-9.5-48-33.5-28.5-65.5-9.5-106.5v-104h245v-137zm379-961h-182v1556h182v-1556z"/><glyph unicode="ﬃ" horiz-adv-x="1878" d="M29 0zm622 961h-245v-961h-183v961h-194v75l194 68v96q0 107 22.5 177.5t65 112.5 104.5 59.5 140 17.5q59 0 108.5-11.5t88.5-25.5l-47-141q-31 11-67.5 19.5t-76.5 8.5-69-9.5-48-33.5-28.5-65.5-9.5-106.5v-104h245v-137zm674 0h-245v-961h-183v961h-194v75l194 68v96q0 107 22.5 177.5t65 112.5 104.5 59.5 140 17.5q59 0 108.5-11.5t88.5-25.5l-47-141q-31 11-67.5 19.5t-76.5 8.5-69-9.5-48-33.5-28.5-65.5-9.5-106.5v-104h245v-137zm379-961h-182v1098h182v-1098zm-196 1395q0 60 30.5 87t75.5 27q22 0 41.5-6.5t34-20.5 23-35.5 8.5-51.5q0-58-31.5-86.5t-75.5-28.5q-45 0-75.5 28t-30.5 87z"/><glyph unicode="ﬄ" horiz-adv-x="1878" d="M29 0zm622 961h-245v-961h-183v961h-194v75l194 68v96q0 107 22.5 177.5t65 112.5 104.5 59.5 140 17.5q59 0 108.5-11.5t88.5-25.5l-47-141q-31 11-67.5 19.5t-76.5 8.5-69-9.5-48-33.5-28.5-65.5-9.5-106.5v-104h245v-137zm674 0h-245v-961h-183v961h-194v75l194 68v96q0 107 22.5 177.5t65 112.5 104.5 59.5 140 17.5q59 0 108.5-11.5t88.5-25.5l-47-141q-31 11-67.5 19.5t-76.5 8.5-69-9.5-48-33.5-28.5-65.5-9.5-106.5v-104h245v-137zm379-961h-182v1556h182v-1556z"/><glyph horiz-adv-x="420" d="M0 0z"/></font>
</defs>
</svg>
