<svg xmlns="http://www.w3.org/2000/svg" viewBox="0.001 0.001 272.964 114.012" enable-background="new 0.001 0.001 272.964 114.012"><path fill="#fff" d="M163.591 38.806c-5.985 0-10.443 2.939-10.443 10.012 0 5.329 2.938 9.028 10.12 9.028 6.088 0 10.223-3.587 10.223-9.248 0-6.416-3.7-9.791-9.9-9.792zm-11.966 49.94c-1.416 1.738-2.828 3.585-2.828 5.765 0 4.348 5.545 5.657 13.162 5.657 6.31 0 14.905-.442 14.905-6.309 0-3.487-4.135-3.703-9.36-4.03l-15.879-1.083zm32.201-49.611c1.955 2.503 4.025 5.985 4.025 10.989 0 12.075-9.465 19.145-23.169 19.145-3.485 0-6.64-.434-8.596-.977l-3.591 5.765 10.66.651c18.823 1.199 29.915 1.744 29.915 16.208 0 12.514-10.985 19.581-29.915 19.581-19.69 0-27.196-5.005-27.196-13.598 0-4.897 2.176-7.503 5.984-11.098-3.591-1.518-4.786-4.236-4.786-7.175 0-2.395 1.195-4.57 3.156-6.639 1.958-2.065 4.133-4.135 6.744-6.527-5.33-2.61-9.356-8.268-9.356-16.319 0-12.509 8.269-21.101 24.91-21.101 4.679 0 7.509.431 10.011 1.087h21.215v9.245l-10.011.763m29.149-19.768c-6.202 0-9.791-3.593-9.791-9.796 0-6.195 3.589-9.57 9.791-9.57 6.31 0 9.9 3.375 9.9 9.57 0 6.203-3.59 9.796-9.9 9.796zm-14.036 65.376v-8.59l5.55-.759c1.524-.221 1.74-.544 1.74-2.18v-31.983c0-1.194-.325-1.959-1.416-2.283l-5.874-2.069 1.196-8.809h22.521v45.144c0 1.744.105 1.96 1.741 2.18l5.549.759v8.59h-31.007m74.027-4.217c-4.68 2.282-11.533 4.349-17.736 4.349-12.945 0-17.839-5.217-17.839-17.515v-28.5c0-.651 0-1.088-.874-1.088h-7.614v-9.682c9.576-1.091 13.381-5.878 14.578-17.736h10.336v15.453c0 .759 0 1.087.871 1.087h15.338v10.877h-16.209v25.999c0 6.419 1.525 8.919 7.396 8.919 3.05 0 6.201-.759 8.813-1.739l2.94 9.576"/><path fill="#F03C2E" d="M111.777 51.977l-49.742-49.739c-2.862-2.865-7.508-2.865-10.374 0l-10.329 10.33 13.102 13.103c3.046-1.028 6.537-.339 8.964 2.088 2.439 2.442 3.124 5.963 2.07 9.02l12.628 12.627c3.055-1.053 6.58-.373 9.02 2.071 3.411 3.41 3.411 8.934 0 12.345-3.411 3.412-8.936 3.412-12.349 0-2.564-2.567-3.199-6.335-1.9-9.494l-11.777-11.777-.001 30.991c.832.412 1.616.961 2.309 1.651 3.41 3.409 3.41 8.933 0 12.348-3.411 3.409-8.938 3.409-12.345 0-3.41-3.415-3.41-8.938 0-12.348.843-.841 1.818-1.478 2.858-1.905v-31.279c-1.04-.425-2.014-1.058-2.858-1.905-2.583-2.581-3.205-6.372-1.88-9.544l-12.916-12.918-34.106 34.105c-2.866 2.867-2.866 7.513 0 10.378l49.742 49.739c2.864 2.865 7.508 2.865 10.376 0l49.509-49.508c2.865-2.866 2.865-7.514-.001-10.379"/></svg>