<svg xmlns="http://www.w3.org/2000/svg" viewBox="0.001 187.314 800 225.371" enable-background="new 0.001 187.314 800 225.371"><path fill="#fff" d="M228.573 275.348l.002-.009-6.391 22.651 6.389-22.642zm32.871 49.175l-7.043-.041 7.043.041zm-1.811 33.828h.008l-42.197.154 42.189-.154zm8.847-33.786l-7.045-.042 7.045.042zm-5.148 30.911l7.35-28.032-7.35 28.038v-.006zm155.357-129.094l-13.691 64.37 13.691-64.37zm-35.197 0l-10.396 48.087 10.396-48.09v.003zm32.852-2.896h-29.279c-1.625 0-3.237 1.304-3.584 2.891l-10.396 48.09-10.395 48.091c-.345 1.588-1.955 2.887-3.579 2.887h-20.724c-20.503 0-18.131-14.179-13.932-33.61l.125-.587.461-2.448.086-.461.936-4.986 1.003-5.344c.305-1.611.769-3.966 1.072-5.446l4.725-23.088 4.73-23.088c.326-1.592-.74-2.9-2.364-2.9h-30.053c-1.625 0-3.234 1.308-3.565 2.896l-6.462 30.658-6.462 30.654-.009.045-.601 2.849c-7.444 33.981-5.471 66.385 34.982 67.4l1.173.024h63.497c1.625 0 3.234-1.304 3.573-2.896l13.692-64.365 13.691-64.37c.338-1.591-.716-2.896-2.341-2.896zm116.804 102.294c1.626 0 2.69 1.305 2.364 2.896l-2.845 13.896M529.831 356.475l2.841-13.905-2.845 13.909.004-.004zm-3.565 2.924l.013-.004c-8.616.07-34.509.265-53.971.265 23.685 0 53.956-.261 53.958-.261zm-71.425-51.517c-.025-1.521 1.708-4.143 3.334-4.143l-3.656-.062c-1.648 16.572.32 4.205.322 4.205zm20.135 51.772l-.563.004.563-.004zm58.172-33.874c1.626 0 2.69 1.305 2.364 2.896l-2.845 13.896-.463 2.268M488.837 359.622h-.118.118zm-7.189.024h-.417.417zm-2.192.005l-.688.003.688-.003zm-2.231.003h-.604.604zm4.004-.008l-1.773.004 1.773-.004zm7.494-.024l-7.064.025c2.329-.003 4.695-.013 7.064-.025zm37.561-.228c-6.313.052-21.906.168-37.457.229 15.544-.056 31.141-.178 37.457-.229zm3.547-2.914l2.381-11.643-2.383 11.651.002-.008zm-51.061 3.174h-1.546 1.546zm-4.367.004h-2.09 2.09zm2.212-.004h-1.647 1.647zm-428.294-51.423l4.548-20.162-5.2 23.046-4.99 23.475 4.374-20.578c.338-1.592.91-4.195 1.268-5.781zm54.437-85.084h-32.155c-1.626 0-3.249 1.298-3.613 2.881l-3.049 13.458-3.048 13.463c-.359 1.583.677 2.881 2.303 2.881h32.404c1.625 0 3.239-1.298 3.588-2.887l2.946-13.458 2.946-13.448v-.003c.347-1.588-.698-2.887-2.326-2.887h.004zm-6.998 44.767v-.004l-9.431 43.631 9.431-43.627zm-93.409 144.562s16.209.21 26.513.21c-7.827 0-20.754-.145-26.526-.213l.013.003zm55.066-144.568l-4.553 20.162 4.553-20.162zm36.017-2.885h-32.408c-1.625 0-3.249 1.299-3.607 2.887l-4.553 20.162-4.547 20.162c-.359 1.588-.931 4.188-1.268 5.781l-4.374 20.578-4.37 20.579c-.339 1.589-1.037 4.153-1.56 5.693 0 0-6.054 18.015-16.232 17.811l-1.27-.024-8.807-.164h-.008c-1.623-.024-3.255 1.243-3.632 2.822l-3.361 14.128-3.357 14.123c-.377 1.579.643 2.881 2.258 2.91 5.771.07 18.699.213 26.526.213 25.424 0 38.826-14.087 47.417-54.621l10.054-46.521 9.43-43.631c.342-1.589-.706-2.888-2.331-2.888zm460.364 92.988c-1.624 0-2.679-1.304-2.338-2.896l24.38-114.192M587.68 355.111l9.859-48.739-9.859 48.739zm-35.865 1.453c-.198-.796-.082-2.746.263-4.338l11.57-54.204-12.19 57.095c-.341 1.592.714 2.896 2.338 2.896h2.961c-1.626 0-4.745-.652-4.942-1.449zm33.939.795c-.885.358-2.941.651-4.568.651h2.961c1.625 0 3.221-1.304 3.543-2.899l.587-2.896c-.325 1.592-1.634 4.786-2.523 5.144zm6.864-26.618l4.354-21.511-.008.042-4.346 21.469zm96.194-82.168l1.342 5.548c.37 1.588-.656 2.877-2.278 2.881"/><path fill="#fff" d="M588.271 352.217l4.341-21.474-4.341 21.474zm99.206-109.328l1.329 5.684-1.329-5.684zm-90.511 66.343c.324-1.592.857-4.172 1.195-5.749l4.648-21.776-5.265 24.667-.578 2.858zm-20.726-70.18l-1.013 4.763-11.57 54.207 12.189-57.098.394-1.872zm113.906 15.069l-1.342-5.548-1.329-5.684-.673-2.877c-2.634-10.228-10.359-16.131-27.139-16.131l-26.121-.029-24.057-.028h-27.069c-1.625 0-3.234 1.298-3.567 2.891h-.002l-1.196 5.655-1.412 6.679-.394 1.87-12.189 57.098-11.569 54.204c-.346 1.592-.462 3.543-.264 4.338.195.795 3.314 1.447 4.94 1.447h24.421c1.627 0 3.685-.294 4.568-.652.887-.358 2.197-3.553 2.521-5.145l4.342-21.473 4.346-21.47.008-.042.579-2.858 5.265-24.667 4.65-21.786c.345-1.583 1.944-2.877 3.567-2.881l76.84-.036c1.623-.004 2.648-1.295 2.278-2.881l-.002.006zm98.919-50.173c-1.629.012-4.286.021-5.915.021h-24.594c-1.627 0-3.711 1.098-4.628 2.44l-54.385 79.675c-.919 1.346-1.968 1.146-2.328-.437l-4-17.555c-.36-1.588-1.991-2.881-3.615-2.881h-34.963c-1.627 0-2.592 1.275-2.146 2.839l15.668 54.882c.445 1.563.479 4.134.076 5.707l-6.83 26.562c-.404 1.579.597 2.868 2.224 2.868h34.555c1.624 0 3.287-1.289 3.689-2.868l6.832-26.562c.402-1.573 1.532-3.93 2.513-5.229l88.291-117.184c.98-1.298.45-2.354-1.174-2.343l-9.27.065zm-277.767 68.737l-.002-.032c-.204 1.764-1.832 3.058-3.457 3.058h-44.327c-1.53 0-2.311-1.043-2.086-2.328l.042-.103-.028.014.025-.149.202-.755c4.232-11.255 12.856-18.644 29.063-18.644 18.246 0 21.807 8.913 20.568 18.939zm-13.004-51.164c-56.897 0-70.38 34.536-77.944 69.392-7.563 35.528-6.913 68.746 51.964 68.746h2.09l.563-.004h3.798l.688-.003 1.773-.004h.417c2.33-.004 4.694-.016 7.064-.025h.118c15.549-.061 31.145-.177 37.461-.229 1.615-.024 3.195-1.327 3.529-2.904l2.384-11.651.463-2.268 2.845-13.896c.326-1.592-.737-2.896-2.364-2.896h-52.932c-21.052 0-27.304-5.596-25.001-22.041h84.614l-.008.01.057-.01c1.347-.025 2.588-.95 3.082-2.184.093-.236.171-.484.204-.739l-.01.009c12.563-47.389 8.961-79.303-44.861-79.303h.006zm-268.92 50.982l-.801 2.835-.002.009-6.389 22.642-6.387 22.639c-.442 1.563-2.132 2.845-3.762 2.845h-33.817c-25.651 0-31.897-20.063-25.651-49.654 6.244-30.267 18.489-49.083 43.736-50.987 34.499-2.603 41.401 21.664 33.073 49.671zm23.191 49.227s15.944-38.711 19.564-61.073c4.958-29.933-10.029-73.343-67.917-73.343-57.561 0-82.554 41.446-92.091 86.501-9.536 45.381 2.959 85.182 60.188 84.855l45.149-.168 42.197-.154c1.625-.014 3.287-1.304 3.701-2.871l7.35-28.038c.41-1.573-.583-2.868-2.208-2.877l-7.045-.042-7.043-.042c-1.382-.01-2.174-.904-2.006-2.09.03-.214.08-.433.171-.662l-.01.004z"/></svg>