<?xml version="1.0" encoding="utf-8"?>
<!DOCTYPE svg PUBLIC "-//W3C//DTD SVG 1.1//EN" "http://www.w3.org/Graphics/SVG/1.1/DTD/svg11.dtd">
<svg xmlns="http://www.w3.org/2000/svg" viewBox="0 0 297.449 419.876"><path fill="#fff" d="M233.093 15.546h-24.688l25.675 27.859v13.261h-52.883v-15.526h25.669l-25.669-27.86v-13.28h51.896v15.546zm-62.378 0h-24.688l25.673 27.859v13.261h-52.882v-15.526h25.672l-25.672-27.86v-13.28h51.897v15.546zm-61.769.631h-26.64v24.313h26.64v16.176h-45.573v-56.666h45.573v16.177z"/><path fill="#1572B6" d="M27.07 386.155l-27.07-303.62h297.449l-27.095 303.571-121.811 33.77z"/><path fill="#33A9DC" d="M148.727 394.064l98.426-27.288 23.158-259.415h-121.584z"/><path fill="#fff" d="M148.726 217.361h49.275l3.402-38.132h-52.677v-37.239h93.375l-.893 9.991-9.152 102.617h-83.33z"/><path fill="#EBEBEB" d="M148.949 314.069l-.163.046-41.473-11.199-2.651-29.698h-37.379000000000005l5.216 58.468 76.277 21.175.173-.048z"/><path fill="#fff" d="M194.836 253.021l-4.484 49.871-41.533 11.21v38.741l76.339-21.157.561-6.29 6.477-72.375z"/><path fill="#EBEBEB" d="M148.854 141.99v37.239h-89.946l-.747-8.37-1.697-18.878-.891-9.991zM148.726 217.365v37.239000000000004h-40.948l-.745-8.37-1.698-18.878-.891-9.991z"/></svg>