<?xml version="1.0" encoding="utf-8"?>
<!DOCTYPE svg PUBLIC "-//W3C//DTD SVG 1.1//EN" "http://www.w3.org/Graphics/SVG/1.1/DTD/svg11.dtd">
<svg version="1.1" id="Layer_1" xmlns="http://www.w3.org/2000/svg" xmlns:xlink="http://www.w3.org/1999/xlink" x="0px" y="0px"
	 viewBox="0.002 133.187 333.891 333.885"
	 enable-background="new 0.002 133.187 333.891 333.885" xml:space="preserve">
<g>
	<path fill="#F03C2E" d="M327.593,285.259L181.81,139.484c-8.388-8.396-22.004-8.396-30.404,0l-30.272,30.275l38.399,38.402
		c8.927-3.013,19.159-0.993,26.271,6.12c7.148,7.157,9.156,17.477,6.067,26.436l37.01,37.007c8.954-3.086,19.285-1.093,26.436,6.07
		c9.997,9.994,9.997,26.184,0,36.181c-9.997,10-26.19,10-36.192,0c-7.515-7.523-9.375-18.566-5.569-27.825l-34.516-34.516
		l-0.003,90.829c2.438,1.207,4.736,2.816,6.767,4.839c9.994,9.99,9.994,26.181,0,36.188c-9.997,9.991-26.195,9.991-36.181,0
		c-9.994-10.008-9.994-26.195,0-36.188c2.471-2.465,5.328-4.332,8.376-5.584v-91.672c-3.048-1.246-5.903-3.101-8.376-5.583
		c-7.57-7.564-9.393-18.675-5.51-27.972l-37.854-37.86L6.302,284.585c-8.4,8.403-8.4,22.02,0,30.416l145.783,145.774
		c8.394,8.396,22.004,8.396,30.41,0l145.1-145.098C335.993,307.278,335.993,293.656,327.593,285.259"/>
</g>
</svg>
