<?xml version="1.0" encoding="UTF-8" standalone="no"?>
<svg
   xmlns:dc="http://purl.org/dc/elements/1.1/"
   xmlns:cc="http://creativecommons.org/ns#"
   xmlns:rdf="http://www.w3.org/1999/02/22-rdf-syntax-ns#"
   xmlns:svg="http://www.w3.org/2000/svg"
   xmlns="http://www.w3.org/2000/svg"
   version="1.1"
   width="285.74387"
   height="283.47476"
   viewBox="-0.213 -0.514 285.74387 283.47476"
   id="svg2"
   xml:space="preserve"
   style="overflow:visible"><metadata
   id="metadata64"><rdf:RDF><cc:Work
       rdf:about=""><dc:format>image/svg+xml</dc:format><dc:type
         rdf:resource="http://purl.org/dc/dcmitype/StillImage" /><dc:title></dc:title></cc:Work></rdf:RDF></metadata>
<defs
   id="defs4">
</defs>
<path
   d="m 275.02286,210.031 c -42.246,46.196 -120.021,51.215 -181.509002,9.25 -63.43,-43.292 -86.617,-120.945 -54.758,-177.668 -6.613,6.092 -12.614,12.985 -17.858,20.668 -41.274,60.475 -20.17399999,146.733 47.127,192.666 67.304002,45.934 155.325002,34.149 196.598002,-26.324 4.072,-5.967 7.527,-12.187 10.4,-18.592 z"
   id="path6"
   style="fill:#1b75bb" />
<path
   d="m 285.53086,133.313 c -0.092,-0.11 -1.22,1.775 -1.853,2.64 -27.354,37.391 -86.305,42.609 -133.498,11.207 -48.285,-32.128 -65.971002,-90.418 -39.505,-130.193 2.037,-3.061 4.276,-5.92 6.695,-8.581 1.9,-2.088 3.913,-4.051 6.024,-5.891 -2.252,1.876 -4.439,3.852 -6.552,5.931 -5.181,5.101 -9.921,10.804 -14.108,17.097 -32.798002,49.292 -19.431002,115.839 29.86,148.636 49.291,32.798 115.026,18.873 147.826,-30.419 10e-4,-0.002 3.02,-4.99 5.111,-10.427 z"
   id="path8"
   style="fill:#1b75bb" />
<path
   d="m 184.71086,100.714 c 27.823,18.989 63.872,15.598 84.711,-6.617 2.032,-2.167 3.929,-4.505 5.65,-7.028 2.76,-4.044 4.922,-8.327 6.548,-12.75 -0.757,1.434 -1.587,2.838 -2.518,4.201 -3.202,4.691 -7.207,8.576 -11.79,11.657 -18.977,12.759 -47.969,11.572 -71.972,-4.81 -26.657,-18.193 -38.104,-48.946 -28.439,-72.497 1.14,-2.776 2.554,-5.457 4.289,-8 1.32,-1.936 2.791,-3.721 4.368,-5.384 -4.162,3.431 -7.903,7.465 -11.073,12.109 -0.129,0.189 -0.243,0.385 -0.369,0.575 -18.863,28.339 -9.739,67.84 20.595,88.544 z"
   id="path10"
   style="fill:#1b75bb" />
</svg>
