<svg xmlns="http://www.w3.org/2000/svg" viewBox="0 0 100 100"><path class="mixture__shape mixture__bottom-right" fill="#00AEF0" d="M100 64.225c0 17.268-13.958 31.275-31.164 31.275s-31.165-14.007-31.165-31.275 13.958-31.275 31.164-31.275c17.207.001 31.165 14.008 31.165 31.275z"/><path class="mixture__shape mixture__middle-right" fill="#00A651" d="M37.887 60.599c3.724 1.578 7.817 2.451 12.113 2.451 15.988 0 29.156-12.084 30.949-27.646-3.724-1.579-7.817-2.452-12.113-2.452-15.984-.001-29.156 12.087-30.949 27.647z"/><path class="mixture__shape mixture__middle-left" fill="#ED1C24" d="M31.164 32.951c-4.291 0-8.379.871-12.1 2.445 1.303 11.316 8.603 20.798 18.647 25.128l.098.042.077.033.01-.083c1.018-8.635 5.546-16.191 12.108-21.199-5.233-3.993-11.759-6.366-18.84-6.366z"/><path class="mixture__shape mixture__bottom-left" fill="#EC008C" d="M37.672 64.225c0-1.273.085-2.525.232-3.758l-.007.048-.01.083-.077-.033-.098-.042c-10.045-4.33-17.345-13.812-18.647-25.128-11.202 4.742-19.065 15.864-19.065 28.83 0 17.273 13.953 31.275 31.164 31.275 7.08 0 13.605-2.373 18.838-6.364-7.49-5.713-12.33-14.745-12.33-24.911z"/><path class="mixture__shape mixture__top" fill="#FFF200" d="M50 .5c-17.212 0-31.164 14.002-31.164 31.275 0 1.227.092 2.431.229 3.621 3.72-1.574 7.808-2.445 12.1-2.445 7.081 0 13.607 2.374 18.84 6.366l-.001.001c5.231-3.993 11.755-6.367 18.833-6.367 4.25 0 8.301.855 11.993 2.402l.12.051.016-.077.015-.139c.122-1.121.184-2.259.184-3.412-.001-17.274-13.953-31.276-31.165-31.276z"/><path class="mixture__shape mixture__middle-bottom" fill="#2E3092" d="M62.329 64.225c0-1.224-.086-2.438-.229-3.633-3.716 1.578-7.813 2.457-12.1 2.457s-8.375-.87-12.1-2.448c-.133 1.195-.229 2.4-.229 3.624 0 10.154 4.849 19.161 12.329 24.869 7.479-5.708 12.329-14.705 12.329-24.869z"/><path class="mixture__shape mixture__middle" fill="#363639" d="M50 39.357c-6.574 5.02-11.099 12.583-12.1 21.245 3.725 1.568 7.812 2.448 12.1 2.448s8.384-.87 12.1-2.448c-1.001-8.663-5.526-16.226-12.1-21.245z"/></svg>